<svg width="16" height="16" viewBox="0 0 16 16" fill="none" xmlns="http://www.w3.org/2000/svg">
<g clip-path="url(#clip0_5163_928)">
<path fill-rule="evenodd" clip-rule="evenodd" d="M10.9999 2.80093C9.81117 2.11505 8.42323 1.85742 7.06754 2.071C5.71185 2.28459 4.47035 2.95648 3.55009 3.97463C2.62983 4.99278 2.08642 6.29565 2.0105 7.66596C1.93457 9.03627 2.33071 10.3912 3.13286 11.5048C3.93501 12.6184 5.09468 13.4233 6.41848 13.7854C7.74227 14.1474 9.15018 14.0447 10.4074 13.4943C11.6646 12.944 12.6952 11.9792 13.3272 10.761C13.9592 9.54278 14.1545 8.14471 13.8805 6.79993C13.807 6.43915 14.0399 6.08709 14.4006 6.01358C14.7614 5.94007 15.1135 6.17294 15.187 6.53372C15.5219 8.17734 15.2832 9.88609 14.5107 11.375C13.7383 12.864 12.4787 14.0431 10.9421 14.7157C9.40548 15.3884 7.68471 15.514 6.06674 15.0715C4.44876 14.629 3.03139 13.6451 2.05099 12.2841C1.07058 10.923 0.586408 9.26702 0.679205 7.5922C0.772002 5.91738 1.43616 4.32498 2.56093 3.08057C3.68569 1.83617 5.20308 1.01497 6.86003 0.753915C8.51699 0.492865 10.2134 0.807747 11.6663 1.64605C11.9852 1.83006 12.0945 2.23776 11.9105 2.55667C11.7265 2.87558 11.3188 2.98494 10.9999 2.80093ZM15.1378 2.19542C15.3982 2.45577 15.3982 2.87788 15.1378 3.13823L8.47115 9.8049C8.2108 10.0652 7.78869 10.0652 7.52834 9.8049L5.52834 7.80489C5.26799 7.54455 5.26799 7.12244 5.52834 6.86209C5.78869 6.60174 6.2108 6.60174 6.47115 6.86209L7.99974 8.39068L14.195 2.19542C14.4554 1.93507 14.8775 1.93507 15.1378 2.19542Z" fill="#508B26"/>
</g>
<defs>
<clipPath id="clip0_5163_928">
<rect width="16" height="16" fill="white"/>
</clipPath>
</defs>
</svg>
