<svg width="16" height="16" viewBox="0 0 16 16" fill="none" xmlns="http://www.w3.org/2000/svg">
<g clip-path="url(#clip0_5154_421)">
<path fill-rule="evenodd" clip-rule="evenodd" d="M7.99935 1.99996C4.68564 1.99996 1.99935 4.68625 1.99935 7.99996C1.99935 11.3137 4.68564 14 7.99935 14C11.3131 14 13.9993 11.3137 13.9993 7.99996C13.9993 4.68625 11.3131 1.99996 7.99935 1.99996ZM0.666016 7.99996C0.666016 3.94987 3.94926 0.666626 7.99935 0.666626C12.0494 0.666626 15.3327 3.94987 15.3327 7.99996C15.3327 12.05 12.0494 15.3333 7.99935 15.3333C3.94926 15.3333 0.666016 12.05 0.666016 7.99996ZM7.99935 3.33329C8.36754 3.33329 8.66602 3.63177 8.66602 3.99996V6.92127L10.3679 6.07034C10.6972 5.90568 11.0976 6.03916 11.2623 6.36848C11.427 6.6978 11.2935 7.09825 10.9642 7.26291L8.29749 8.59624C8.09083 8.69957 7.84541 8.68853 7.64886 8.56706C7.45232 8.44559 7.33268 8.23101 7.33268 7.99996V3.99996C7.33268 3.63177 7.63116 3.33329 7.99935 3.33329Z" fill="#355EC5"/>
</g>
<defs>
<clipPath id="clip0_5154_421">
<rect width="16" height="16" fill="white"/>
</clipPath>
</defs>
</svg>
