<svg width="16" height="16" viewBox="0 0 16 16" fill="none" xmlns="http://www.w3.org/2000/svg">
<g clip-path="url(#clip0_5154_459)">
<path fill-rule="evenodd" clip-rule="evenodd" d="M7.99935 1.99996C4.68564 1.99996 1.99935 4.68625 1.99935 7.99996C1.99935 11.3137 4.68564 14 7.99935 14C11.3131 14 13.9993 11.3137 13.9993 7.99996C13.9993 4.68625 11.3131 1.99996 7.99935 1.99996ZM0.666016 7.99996C0.666016 3.94987 3.94926 0.666626 7.99935 0.666626C12.0494 0.666626 15.3327 3.94987 15.3327 7.99996C15.3327 12.05 12.0494 15.3333 7.99935 15.3333C3.94926 15.3333 0.666016 12.05 0.666016 7.99996ZM8.17143 5.3495C7.86108 5.29627 7.54191 5.35459 7.27044 5.51414C6.99897 5.67368 6.79273 5.92415 6.68824 6.22119C6.56606 6.56851 6.18545 6.75103 5.83812 6.62885C5.49079 6.50667 5.30828 6.12606 5.43046 5.77873C5.63944 5.18466 6.05193 4.68371 6.59486 4.36463C7.1378 4.04554 7.77614 3.9289 8.39684 4.03536C9.01753 4.14183 9.58052 4.46453 9.98608 4.94631C10.3916 5.42809 10.6136 6.03786 10.6127 6.66762L9.94602 6.66663H10.6127C10.6127 6.66696 10.6127 6.66729 10.6127 6.66762C10.6122 7.68764 9.85591 8.36127 9.31582 8.72133C9.02539 8.91494 8.73972 9.0573 8.52927 9.15083C8.42311 9.19802 8.3337 9.23383 8.26928 9.25837C8.23702 9.27066 8.21086 9.28019 8.19182 9.28696C8.18229 9.29034 8.17453 9.29305 8.16866 9.29507L8.16129 9.29758L8.15869 9.29846L8.15723 9.29895C8.15703 9.29902 8.15683 9.29908 7.94602 8.66663L7.7352 8.03417C7.73508 8.03421 7.73497 8.03425 7.73485 8.03429L7.74514 8.03067C7.75539 8.02702 7.7722 8.02093 7.79462 8.01238C7.83958 7.99526 7.90643 7.96857 7.98776 7.93242C8.15231 7.85928 8.36664 7.75165 8.57622 7.61193C9.03595 7.30544 9.27935 6.97938 9.27935 6.66663L9.27935 6.66563C9.27982 6.35075 9.16883 6.04587 8.96605 5.80498C8.76327 5.56409 8.48178 5.40274 8.17143 5.3495ZM7.73388 8.03461C7.38544 8.15155 7.19728 8.52859 7.31356 8.87745C7.42999 9.22674 7.80754 9.41551 8.15683 9.29908L7.94602 8.66663C7.7352 8.03417 7.73502 8.03423 7.73485 8.03429L7.73388 8.03461C7.73392 8.0346 7.73381 8.03464 7.73388 8.03461ZM7.33268 11.3333C7.33268 10.9651 7.63116 10.6666 7.99935 10.6666H8.00602C8.37421 10.6666 8.67268 10.9651 8.67268 11.3333C8.67268 11.7015 8.37421 12 8.00602 12H7.99935C7.63116 12 7.33268 11.7015 7.33268 11.3333Z" fill="#CC3D6A"/>
</g>
<defs>
<clipPath id="clip0_5154_459">
<rect width="16" height="16" fill="white"/>
</clipPath>
</defs>
</svg>
