<svg width="14" height="14" viewBox="0 0 14 14" fill="none" xmlns="http://www.w3.org/2000/svg">
<path fill-rule="evenodd" clip-rule="evenodd" d="M7.00095 3.50041C5.87458 3.50041 4.77358 3.83485 3.83752 4.46135C2.90728 5.08394 2.18157 5.9671 1.7511 7.00005C2.18157 8.03299 2.90728 8.91615 3.83752 9.53875C4.77358 10.1652 5.87458 10.4997 7.00095 10.4997C8.12731 10.4997 9.22832 10.1652 10.1644 9.53875C11.0946 8.91615 11.8203 8.03299 12.2508 7.00005C11.8203 5.9671 11.0946 5.08394 10.1644 4.46135C9.22832 3.83485 8.12731 3.50041 7.00095 3.50041ZM3.18861 3.4918C4.31668 2.73679 5.64353 2.33374 7.00095 2.33374C8.35836 2.33374 9.68521 2.73679 10.8133 3.4918C11.9414 4.2468 12.8198 5.31976 13.3374 6.57464C13.34 6.58106 13.3426 6.58753 13.345 6.59405C13.4422 6.85598 13.4422 7.14411 13.345 7.40605C13.3426 7.41256 13.34 7.41903 13.3374 7.42545C12.8198 8.68034 11.9414 9.75329 10.8133 10.5083C9.68521 11.2633 8.35836 11.6664 7.00095 11.6664C5.64353 11.6664 4.31668 11.2633 3.18861 10.5083C2.06054 9.75329 1.18205 8.68034 0.664508 7.42545C0.661859 7.41903 0.659325 7.41256 0.656907 7.40605C0.559677 7.14411 0.559677 6.85598 0.656907 6.59405C0.659325 6.58753 0.661859 6.58106 0.664508 6.57464C1.18205 5.31976 2.06054 4.2468 3.18861 3.4918ZM7.00095 5.83338C6.35661 5.83338 5.83428 6.35571 5.83428 7.00005C5.83428 7.64438 6.35661 8.16671 7.00095 8.16671C7.64528 8.16671 8.16761 7.64438 8.16761 7.00005C8.16761 6.35571 7.64528 5.83338 7.00095 5.83338ZM4.66761 7.00005C4.66761 5.71138 5.71228 4.66671 7.00095 4.66671C8.28961 4.66671 9.33428 5.71138 9.33428 7.00005C9.33428 8.28871 8.28961 9.33338 7.00095 9.33338C5.71228 9.33338 4.66761 8.28871 4.66761 7.00005Z" fill="#1E2024"/>
</svg>
