<svg width="20" height="20" viewBox="0 0 20 20" fill="none" xmlns="http://www.w3.org/2000/svg">
<path fill-rule="evenodd" clip-rule="evenodd" d="M4.16699 3.33317C3.94598 3.33317 3.73402 3.42097 3.57774 3.57725C3.42146 3.73353 3.33366 3.94549 3.33366 4.1665V15.8332C3.33366 16.0542 3.42146 16.2661 3.57774 16.4224C3.73402 16.5787 3.94598 16.6665 4.16699 16.6665H7.50033C7.96056 16.6665 8.33366 17.0396 8.33366 17.4998C8.33366 17.9601 7.96056 18.3332 7.50033 18.3332H4.16699C3.50395 18.3332 2.86807 18.0698 2.39923 17.6009C1.93038 17.1321 1.66699 16.4962 1.66699 15.8332V4.1665C1.66699 3.50346 1.93038 2.86758 2.39923 2.39874C2.86807 1.9299 3.50395 1.6665 4.16699 1.6665H7.50033C7.96056 1.6665 8.33366 2.0396 8.33366 2.49984C8.33366 2.96007 7.96056 3.33317 7.50033 3.33317H4.16699ZM12.7444 5.24392C13.0698 4.91848 13.5975 4.91848 13.9229 5.24392L18.0896 9.41058C18.415 9.73602 18.415 10.2637 18.0896 10.5891L13.9229 14.7558C13.5975 15.0812 13.0698 15.0812 12.7444 14.7558C12.419 14.4303 12.419 13.9027 12.7444 13.5772L15.4885 10.8332H7.50033C7.04009 10.8332 6.66699 10.4601 6.66699 9.99984C6.66699 9.5396 7.04009 9.1665 7.50033 9.1665H15.4885L12.7444 6.42243C12.419 6.09699 12.419 5.56935 12.7444 5.24392Z" fill="#D03E3E"/>
</svg>
