<svg width="14" height="14" viewBox="0 0 14 14" fill="none" xmlns="http://www.w3.org/2000/svg">
<path fill-rule="evenodd" clip-rule="evenodd" d="M10.4282 2.33348C10.2545 2.33348 10.088 2.40248 9.96513 2.5253L2.95872 9.53172C2.8894 9.601 2.83854 9.68673 2.81105 9.7808C2.81104 9.78084 2.81106 9.78076 2.81105 9.7808L2.47124 10.9454L3.63584 10.6056L3.63614 10.6055C3.73035 10.5781 3.81613 10.5273 3.88551 10.4579L10.8913 3.45153C11.0141 3.3287 11.0832 3.1621 11.0832 2.9884C11.0832 2.81471 11.0142 2.64812 10.8913 2.5253C10.7685 2.40248 10.6019 2.33348 10.4282 2.33348ZM9.14017 1.70034C9.48179 1.35873 9.94512 1.16681 10.4282 1.16681C10.9114 1.16681 11.3747 1.35873 11.7163 1.70034C12.0579 2.04196 12.2498 2.50529 12.2498 2.9884C12.2498 3.47152 12.0579 3.93485 11.7163 4.27647L4.71048 11.2829C4.50239 11.491 4.24516 11.6432 3.96263 11.7256C3.96253 11.7256 3.96243 11.7256 3.96233 11.7256L2.2873 12.2144C2.13671 12.2583 1.97703 12.261 1.82508 12.222C1.67313 12.1831 1.53444 12.104 1.42352 11.9931C1.3126 11.8822 1.23354 11.7435 1.19461 11.5916C1.15568 11.4396 1.15832 11.28 1.20224 11.1294L1.69109 9.45401C1.77352 9.17173 1.92578 8.91466 2.13376 8.70676C2.13372 8.7068 2.1338 8.70672 2.13376 8.70676L9.14017 1.70034ZM6.41665 11.6667C6.41665 11.3445 6.67782 11.0833 6.99999 11.0833H12.25C12.5722 11.0833 12.8333 11.3445 12.8333 11.6667C12.8333 11.9888 12.5722 12.25 12.25 12.25H6.99999C6.67782 12.25 6.41665 11.9888 6.41665 11.6667Z" fill="#1E2024"/>
</svg>
