<svg width="14" height="14" viewBox="0 0 14 14" fill="none" xmlns="http://www.w3.org/2000/svg">
<path fill-rule="evenodd" clip-rule="evenodd" d="M5.44308 1.94389C5.3062 2.08077 5.24935 2.23155 5.24935 2.3335V2.91683H8.74935V2.3335C8.74935 2.23155 8.6925 2.08077 8.55562 1.94389C8.41874 1.80701 8.26796 1.75016 8.16602 1.75016H5.83268C5.73073 1.75016 5.57996 1.80701 5.44308 1.94389ZM9.91602 2.91683V2.3335C9.91602 1.85211 9.6812 1.41955 9.38058 1.11893C9.07996 0.818315 8.6474 0.583496 8.16602 0.583496H5.83268C5.3513 0.583496 4.91874 0.818315 4.61812 1.11893C4.3175 1.41955 4.08268 1.85211 4.08268 2.3335V2.91683H1.74935C1.42718 2.91683 1.16602 3.178 1.16602 3.50016C1.16602 3.82233 1.42718 4.0835 1.74935 4.0835H2.33268V11.6668C2.33268 12.1482 2.5675 12.5808 2.86812 12.8814C3.16874 13.182 3.6013 13.4168 4.08268 13.4168H9.91602C10.3974 13.4168 10.83 13.182 11.1306 12.8814C11.4312 12.5808 11.666 12.1482 11.666 11.6668V4.0835H12.2493C12.5715 4.0835 12.8327 3.82233 12.8327 3.50016C12.8327 3.178 12.5715 2.91683 12.2493 2.91683H9.91602ZM3.49935 4.0835V11.6668C3.49935 11.7688 3.5562 11.9196 3.69308 12.0564C3.82996 12.1933 3.98073 12.2502 4.08268 12.2502H9.91602C10.018 12.2502 10.1687 12.1933 10.3056 12.0564C10.4425 11.9196 10.4993 11.7688 10.4993 11.6668V4.0835H3.49935Z" fill="#D03E3E"/>
</svg>
