<svg width="14" height="14" viewBox="0 0 14 14" fill="none" xmlns="http://www.w3.org/2000/svg">
<path fill-rule="evenodd" clip-rule="evenodd" d="M6.58687 1.33736C6.81468 1.10955 7.18402 1.10955 7.41183 1.33736L10.3285 4.25402C10.5563 4.48183 10.5563 4.85118 10.3285 5.07898C10.1007 5.30679 9.73134 5.30679 9.50354 5.07898L7.58268 3.15813V8.74984C7.58268 9.072 7.32152 9.33317 6.99935 9.33317C6.67718 9.33317 6.41602 9.072 6.41602 8.74984V3.15813L4.49516 5.07898C4.26736 5.30679 3.89801 5.30679 3.6702 5.07898C3.4424 4.85118 3.4424 4.48183 3.6702 4.25402L6.58687 1.33736ZM1.74935 8.1665C2.07152 8.1665 2.33268 8.42767 2.33268 8.74984V11.0832C2.33268 11.2379 2.39414 11.3863 2.50354 11.4956C2.61293 11.605 2.76131 11.6665 2.91602 11.6665H11.0827C11.2374 11.6665 11.3858 11.605 11.4952 11.4956C11.6046 11.3863 11.666 11.2379 11.666 11.0832V8.74984C11.666 8.42767 11.9272 8.1665 12.2493 8.1665C12.5715 8.1665 12.8327 8.42767 12.8327 8.74984V11.0832C12.8327 11.5473 12.6483 11.9924 12.3201 12.3206C11.9919 12.6488 11.5468 12.8332 11.0827 12.8332H2.91602C2.45189 12.8332 2.00677 12.6488 1.67858 12.3206C1.35039 11.9924 1.16602 11.5473 1.16602 11.0832V8.74984C1.16602 8.42767 1.42718 8.1665 1.74935 8.1665Z" fill="#1E2024"/>
</svg>
