<svg width="14" height="14" viewBox="0 0 14 14" fill="none" xmlns="http://www.w3.org/2000/svg">
<g clip-path="url(#clip0_5163_2445)">
<path d="M12.2499 7.00016C12.2499 4.10067 9.89941 1.75016 6.99992 1.75016C5.76031 1.75016 4.62109 2.17985 3.72294 2.89832L11.1015 10.2769C11.8199 9.37871 12.2499 8.23976 12.2499 7.00016ZM1.74992 7.00016C1.74992 9.89966 4.10042 12.2502 6.99992 12.2502C8.23951 12.2502 9.37847 11.8202 10.2766 11.1017L2.89807 3.72319C2.1796 4.62133 1.74992 5.76055 1.74992 7.00016ZM13.4166 7.00016C13.4166 8.70962 12.7478 10.2627 11.658 11.4128C11.6313 11.4636 11.5969 11.5115 11.5541 11.5543C11.5112 11.5972 11.4632 11.6316 11.4122 11.6583C10.2622 12.748 8.70931 13.4168 6.99992 13.4168C3.45609 13.4168 0.583252 10.544 0.583252 7.00016C0.583252 5.29063 1.25191 3.73735 2.3418 2.58728C2.36849 2.53648 2.40305 2.48872 2.44576 2.446C2.4885 2.40326 2.5362 2.36846 2.58704 2.34176C3.73709 1.25195 5.29045 0.583496 6.99992 0.583496C10.5437 0.583496 13.4166 3.45634 13.4166 7.00016Z" fill="#535964"/>
</g>
<defs>
<clipPath id="clip0_5163_2445">
<rect width="14" height="14" fill="white"/>
</clipPath>
</defs>
</svg>
