<svg width="20" height="20" viewBox="0 0 20 20" fill="none" xmlns="http://www.w3.org/2000/svg">
<path d="M17.5 12.297C15.2837 13.477 12.8147 14.1204 10.2929 14.1667L9.99998 14.1695C7.3767 14.1695 4.80201 13.5227 2.49998 12.297V15C2.49998 15.4602 2.87308 15.8333 3.33331 15.8333H16.6666C17.1269 15.8333 17.5 15.4602 17.5 15V12.297ZM10.0081 9.16668L10.0936 9.17115C10.5137 9.21386 10.8415 9.56856 10.8415 10C10.8415 10.4315 10.5137 10.7862 10.0936 10.8289L10.0081 10.8333H9.99998C9.53974 10.8333 9.16665 10.4602 9.16665 10C9.16665 9.53977 9.53974 9.16668 9.99998 9.16668H10.0081ZM17.5 6.66668C17.5 6.20644 17.1269 5.83334 16.6666 5.83334H3.33331C2.87308 5.83334 2.49998 6.20644 2.49998 6.66668V10.376C4.75222 11.7646 7.34828 12.5029 9.99998 12.5029L10.2624 12.5004C12.8227 12.4534 15.3221 11.7187 17.5 10.376V6.66668ZM12.5 3.33334C12.5 3.11233 12.4121 2.90043 12.2558 2.74415C12.0996 2.58787 11.8877 2.50001 11.6666 2.50001H8.33331C8.1123 2.50001 7.9004 2.58787 7.74412 2.74415C7.58784 2.90043 7.49998 3.11233 7.49998 3.33334V4.16668H12.5V3.33334ZM14.1666 4.16668H16.6666C18.0474 4.16668 19.1666 5.28597 19.1666 6.66668V15C19.1666 16.3807 18.0474 17.5 16.6666 17.5H3.33331C1.9526 17.5 0.833313 16.3807 0.833313 15V6.66668C0.833313 5.28596 1.9526 4.16668 3.33331 4.16668H5.83331V3.33334C5.83331 2.6703 6.09689 2.03461 6.56574 1.56577C7.03458 1.09692 7.67027 0.833344 8.33331 0.833344H11.6666C12.3297 0.833344 12.9654 1.09692 13.4342 1.56577C13.9031 2.03461 14.1666 2.6703 14.1666 3.33334V4.16668Z" fill="#858B99"/>
</svg>
