<svg width="14" height="14" viewBox="0 0 14 14" fill="none" xmlns="http://www.w3.org/2000/svg">
<g clip-path="url(#clip0_5163_2320)">
<path d="M12.2499 7.00016C12.2499 4.10067 9.89941 1.75016 6.99992 1.75016C4.10042 1.75016 1.74992 4.10067 1.74992 7.00016C1.74992 9.89966 4.10042 12.2502 6.99992 12.2502C9.89941 12.2502 12.2499 9.89966 12.2499 7.00016ZM8.33748 5.42106C8.56529 5.19326 8.93455 5.19326 9.16235 5.42106C9.39016 5.64887 9.39016 6.01813 9.16235 6.24593L6.82902 8.57926C6.60121 8.80707 6.23196 8.80707 6.00415 8.57926L4.83748 7.4126L4.79732 7.36845C4.61042 7.13933 4.62391 6.80131 4.83748 6.58773C5.05106 6.37415 5.38909 6.36067 5.61821 6.54757L5.66235 6.58773L6.41659 7.34196L8.33748 5.42106ZM13.4166 7.00016C13.4166 10.544 10.5437 13.4168 6.99992 13.4168C3.45609 13.4168 0.583252 10.544 0.583252 7.00016C0.583252 3.45634 3.45609 0.583496 6.99992 0.583496C10.5437 0.583496 13.4166 3.45634 13.4166 7.00016Z" fill="#535964"/>
</g>
<defs>
<clipPath id="clip0_5163_2320">
<rect width="14" height="14" fill="white"/>
</clipPath>
</defs>
</svg>
