<svg width="20" height="20" viewBox="0 0 20 20" fill="none" xmlns="http://www.w3.org/2000/svg">
<path fill-rule="evenodd" clip-rule="evenodd" d="M5.83333 2.49992C5.83333 1.57944 6.57953 0.833252 7.5 0.833252H12.5C13.4205 0.833252 14.1667 1.57944 14.1667 2.49992H15C15.663 2.49992 16.2989 2.76331 16.7678 3.23215C17.2366 3.70099 17.5 4.33688 17.5 4.99992V16.6666C17.5 17.3296 17.2366 17.9655 16.7678 18.4344C16.2989 18.9032 15.663 19.1666 15 19.1666H5C4.33696 19.1666 3.70107 18.9032 3.23223 18.4344C2.76339 17.9655 2.5 17.3296 2.5 16.6666V4.99992C2.5 4.33688 2.76339 3.70099 3.23223 3.23215C3.70107 2.76331 4.33696 2.49992 5 2.49992H5.83333ZM5.83333 4.16659H5C4.77899 4.16659 4.56702 4.25438 4.41074 4.41066C4.25446 4.56694 4.16667 4.7789 4.16667 4.99992V16.6666C4.16667 16.8876 4.25446 17.0996 4.41074 17.2558C4.56702 17.4121 4.77899 17.4999 5 17.4999H15C15.221 17.4999 15.433 17.4121 15.5893 17.2558C15.7455 17.0996 15.8333 16.8876 15.8333 16.6666V4.99992C15.8333 4.77891 15.7455 4.56694 15.5893 4.41066C15.433 4.25438 15.221 4.16659 15 4.16659H14.1667C14.1667 5.08706 13.4205 5.83325 12.5 5.83325H7.5C6.57953 5.83325 5.83333 5.08706 5.83333 4.16659ZM12.5 4.16659H7.5V2.49992H12.5V4.16659ZM5.83333 9.16659C5.83333 8.70635 6.20643 8.33325 6.66667 8.33325H6.675C7.13524 8.33325 7.50833 8.70635 7.50833 9.16659C7.50833 9.62682 7.13524 9.99992 6.675 9.99992H6.66667C6.20643 9.99992 5.83333 9.62682 5.83333 9.16659ZM9.16667 9.16659C9.16667 8.70635 9.53976 8.33325 10 8.33325H13.3333C13.7936 8.33325 14.1667 8.70635 14.1667 9.16659C14.1667 9.62682 13.7936 9.99992 13.3333 9.99992H10C9.53976 9.99992 9.16667 9.62682 9.16667 9.16659ZM5.83333 13.3333C5.83333 12.873 6.20643 12.4999 6.66667 12.4999H6.675C7.13524 12.4999 7.50833 12.873 7.50833 13.3333C7.50833 13.7935 7.13524 14.1666 6.675 14.1666H6.66667C6.20643 14.1666 5.83333 13.7935 5.83333 13.3333ZM9.16667 13.3333C9.16667 12.873 9.53976 12.4999 10 12.4999H13.3333C13.7936 12.4999 14.1667 12.873 14.1667 13.3333C14.1667 13.7935 13.7936 14.1666 13.3333 14.1666H10C9.53976 14.1666 9.16667 13.7935 9.16667 13.3333Z" fill="#858B99"/>
</svg>
