<svg width="20" height="20" viewBox="0 0 20 20" fill="none" xmlns="http://www.w3.org/2000/svg">
<path fill-rule="evenodd" clip-rule="evenodd" d="M7.49998 3.33332C6.11927 3.33332 4.99998 4.45261 4.99998 5.83332C4.99998 7.21403 6.11927 8.33332 7.49998 8.33332C8.88069 8.33332 9.99998 7.21403 9.99998 5.83332C9.99998 4.45261 8.88069 3.33332 7.49998 3.33332ZM3.33331 5.83332C3.33331 3.53214 5.19879 1.66666 7.49998 1.66666C9.80117 1.66666 11.6666 3.53214 11.6666 5.83332C11.6666 8.13451 9.80117 9.99999 7.49998 9.99999C5.19879 9.99999 3.33331 8.13451 3.33331 5.83332ZM12.526 2.40162C12.6402 1.95577 13.0942 1.68687 13.54 1.80103C14.4363 2.03051 15.2307 2.55176 15.798 3.2826C16.3653 4.01345 16.6732 4.91231 16.6732 5.83749C16.6732 6.76267 16.3653 7.66153 15.798 8.39237C15.2307 9.12322 14.4363 9.64447 13.54 9.87395C13.0942 9.98811 12.6402 9.71921 12.526 9.27336C12.4119 8.8275 12.6808 8.37352 13.1266 8.25936C13.6644 8.12168 14.141 7.80893 14.4814 7.37042C14.8218 6.93191 15.0065 6.3926 15.0065 5.83749C15.0065 5.28238 14.8218 4.74306 14.4814 4.30456C14.141 3.86605 13.6644 3.5533 13.1266 3.41561C12.6808 3.30146 12.4119 2.84748 12.526 2.40162ZM2.0537 12.887C2.8351 12.1056 3.89491 11.6667 4.99998 11.6667H9.99998C11.105 11.6667 12.1649 12.1056 12.9463 12.887C13.7277 13.6684 14.1666 14.7283 14.1666 15.8333V17.5C14.1666 17.9602 13.7936 18.3333 13.3333 18.3333C12.8731 18.3333 12.5 17.9602 12.5 17.5V15.8333C12.5 15.1703 12.2366 14.5344 11.7677 14.0656C11.2989 13.5967 10.663 13.3333 9.99998 13.3333H4.99998C4.33694 13.3333 3.70105 13.5967 3.23221 14.0656C2.76337 14.5344 2.49998 15.1703 2.49998 15.8333V17.5C2.49998 17.9602 2.12688 18.3333 1.66665 18.3333C1.20641 18.3333 0.833313 17.9602 0.833313 17.5V15.8333C0.833313 14.7283 1.2723 13.6684 2.0537 12.887ZM15.0264 12.4C15.1415 11.9544 15.596 11.6864 16.0416 11.8015C16.9355 12.0323 17.7275 12.5534 18.2931 13.283C18.8587 14.0127 19.166 14.9095 19.1666 15.8327V17.5C19.1666 17.9602 18.7936 18.3333 18.3333 18.3333C17.8731 18.3333 17.5 17.9602 17.5 17.5V15.8339C17.4996 15.28 17.3152 14.7419 16.9758 14.3041C16.6365 13.8664 16.1613 13.5537 15.625 13.4152C15.1794 13.3001 14.9114 12.8456 15.0264 12.4Z" fill="#858B99"/>
</svg>
