<svg width="64" height="64" viewBox="0 0 64 64" fill="none" xmlns="http://www.w3.org/2000/svg">
<rect width="64" height="64" rx="8" fill="#2E3DA3"/>
<path d="M31.4282 20.3569C31.6185 20.3476 31.8092 20.3429 32.0002 20.3429C32.1912 20.3429 32.3819 20.3476 32.5722 20.3569L33.1778 8.02891C32.786 8.00966 32.3933 8 32.0002 8C31.6071 8 31.2144 8.00966 30.8226 8.02891L31.4282 20.3569Z" fill="url(#paint0_linear_3129_3174)"/>
<path d="M29.1677 20.6922C29.5378 20.5995 29.9123 20.525 30.2897 20.469L28.4786 8.25976C27.7016 8.37503 26.9307 8.52837 26.1687 8.71925L29.1677 20.6922Z" fill="url(#paint1_linear_3129_3174)"/>
<path d="M33.7106 20.469C34.0881 20.525 34.4625 20.5995 34.8327 20.6922L37.8317 8.71925C37.0697 8.52838 36.2988 8.37503 35.5217 8.25976L33.7106 20.469Z" fill="url(#paint2_linear_3129_3174)"/>
<path d="M27.5392 21.2302C27.7156 21.1571 27.8936 21.0885 28.073 21.0243L23.9148 9.40294C23.5455 9.53511 23.179 9.67645 22.8158 9.82689C22.4526 9.97733 22.0935 10.1365 21.7389 10.3043L27.0161 21.4621C27.1883 21.3806 27.3627 21.3033 27.5392 21.2302Z" fill="url(#paint3_linear_3129_3174)"/>
<path d="M35.9273 21.0243C36.1067 21.0885 36.2848 21.1571 36.4612 21.2302C36.6376 21.3033 36.812 21.3806 36.9842 21.4621L42.2615 10.3043C41.9068 10.1365 41.5478 9.97734 41.1846 9.82689C40.8214 9.67645 40.4549 9.53511 40.0856 9.40294L35.9273 21.0243Z" fill="url(#paint4_linear_3129_3174)"/>
<path d="M25.056 22.6369C25.3625 22.4096 25.68 22.1975 26.0072 22.0013L19.6617 11.4145C18.9879 11.8184 18.3344 12.2551 17.7034 12.723L25.056 22.6369Z" fill="url(#paint5_linear_3129_3174)"/>
<path d="M37.9931 22.0013C38.3204 22.1975 38.6379 22.4096 38.9443 22.6369L46.297 12.723C45.666 12.2551 45.0125 11.8184 44.3386 11.4145L37.9931 22.0013Z" fill="url(#paint6_linear_3129_3174)"/>
<path d="M23.7574 23.7572C23.8923 23.6221 24.0305 23.4906 24.1717 23.3626L15.8827 14.2172C15.5921 14.4806 15.3076 14.7515 15.0296 15.0294C14.7516 15.3074 14.4808 15.5919 14.2174 15.8826L23.3628 24.1715C23.4907 24.0303 23.6223 23.8922 23.7574 23.7572Z" fill="url(#paint7_linear_3129_3174)"/>
<path d="M39.8287 23.3626C39.9698 23.4906 40.108 23.6221 40.243 23.7572C40.3781 23.8922 40.5096 24.0303 40.6376 24.1716L49.783 15.8826C49.5195 15.5919 49.2487 15.3074 48.9707 15.0294C48.6928 14.7515 48.4083 14.4806 48.1176 14.2172L39.8287 23.3626Z" fill="url(#paint8_linear_3129_3174)"/>
<path d="M22.0015 26.007C22.1977 25.6798 22.4098 25.3623 22.6371 25.0558L12.7232 17.7032C12.2553 18.3342 11.8186 18.9877 11.4147 19.6615L22.0015 26.007Z" fill="url(#paint9_linear_3129_3174)"/>
<path d="M41.3633 25.0558C41.5906 25.3623 41.8027 25.6798 41.9989 26.007L52.5857 19.6615C52.1818 18.9877 51.7451 18.3342 51.2771 17.7032L41.3633 25.0558Z" fill="url(#paint10_linear_3129_3174)"/>
<path d="M21.2304 27.539C21.3035 27.3626 21.3808 27.1882 21.4623 27.0159L10.3044 21.7387C10.1367 22.0933 9.97752 22.4524 9.82707 22.8156C9.67663 23.1788 9.53529 23.5453 9.40313 23.9146L21.0245 28.0729C21.0887 27.8934 21.1573 27.7154 21.2304 27.539Z" fill="url(#paint11_linear_3129_3174)"/>
<path d="M42.5381 27.0159C42.6196 27.1882 42.6969 27.3626 42.77 27.539C42.8431 27.7154 42.9117 27.8934 42.9759 28.0729L54.5973 23.9147C54.4651 23.5453 54.3238 23.1788 54.1733 22.8156C54.0229 22.4524 53.8637 22.0933 53.6959 21.7387L42.5381 27.0159Z" fill="url(#paint12_linear_3129_3174)"/>
<path d="M20.4692 30.2895C20.5252 29.9121 20.5997 29.5377 20.6924 29.1675L8.71943 26.1685C8.52856 26.9305 8.37521 27.7014 8.25995 28.4785L20.4692 30.2895Z" fill="url(#paint13_linear_3129_3174)"/>
<path d="M43.308 29.1675C43.4007 29.5377 43.4752 29.9121 43.5312 30.2895L55.7404 28.4785C55.6251 27.7014 55.4718 26.9305 55.2809 26.1685L43.308 29.1675Z" fill="url(#paint14_linear_3129_3174)"/>
<path d="M20.3431 32C20.3431 31.809 20.3478 31.6183 20.3571 31.428L8.02909 30.8224C8.00984 31.2142 8.00018 31.6069 8.00018 32C8.00018 35.1517 8.62096 38.2726 9.82707 41.1844C11.0332 44.0962 12.801 46.742 15.0296 48.9706C17.2582 51.1992 19.904 52.967 22.8158 54.1731C25.7276 55.3792 28.8485 56 32.0002 56C35.1519 56 38.2728 55.3792 41.1846 54.1731C44.0964 52.967 46.7422 51.1992 48.9707 48.9706C51.1993 46.742 52.9672 44.0962 54.1733 41.1844C55.3794 38.2726 56.0002 35.1517 56.0002 32C56.0002 31.6069 55.9905 31.2142 55.9713 30.8224L43.6433 31.428C43.6526 31.6183 43.6573 31.8091 43.6573 32C43.6573 33.5308 43.3558 35.0467 42.77 36.461C42.1841 37.8753 41.3255 39.1604 40.243 40.2428C39.1606 41.3253 37.8755 42.1839 36.4612 42.7698C35.0469 43.3556 33.531 43.6571 32.0002 43.6571C30.4694 43.6571 28.9535 43.3556 27.5392 42.7698C26.1249 42.1839 24.8398 41.3253 23.7574 40.2428C22.6749 39.1604 21.8162 37.8753 21.2304 36.461C20.6446 35.0467 20.3431 33.5308 20.3431 32Z" fill="url(#paint15_linear_3129_3174)"/>
<path d="M32.0018 20.3426C31.8108 20.3426 31.6201 20.3473 31.4298 20.3566L31.1998 15.675C31.7316 15.4457 32.2767 15.2415 32.8338 15.0641L32.5738 20.3566C32.3835 20.3473 32.1928 20.3426 32.0018 20.3426Z" fill="#ADB6EC"/>
<path d="M34.5821 14.6046L33.7123 20.4688C34.0897 20.5248 34.4642 20.5992 34.8342 20.692L36.4305 14.3196C35.8042 14.3827 35.1875 14.4782 34.5821 14.6046Z" fill="#ADB6EC"/>
<path d="M38.36 14.23L35.929 21.024C36.1084 21.0882 36.2864 21.1569 36.4628 21.2299C36.6392 21.303 36.8137 21.3803 36.9859 21.4618L40.3475 14.3542C39.6952 14.2768 39.032 14.2347 38.36 14.23Z" fill="#ADB6EC"/>
<path d="M42.3635 14.7124L37.9948 22.0011C38.322 22.1972 38.6395 22.4093 38.946 22.6366L44.3729 15.3193C43.7202 15.0789 43.0496 14.8757 42.3635 14.7124Z" fill="#ADB6EC"/>
<path d="M46.3381 16.1821L39.8302 23.3623C39.9715 23.4903 40.1096 23.6219 40.2446 23.7569C40.3797 23.8919 40.5112 24.0301 40.6392 24.1713L48.2201 17.3003C47.6182 16.8906 46.9898 16.5168 46.3381 16.1821Z" fill="#ADB6EC"/>
<path d="M49.9795 18.6666L41.3649 25.0556C41.5922 25.362 41.8043 25.6795 42.0005 26.0068L51.5777 20.2664C51.0793 19.7 50.5454 19.1656 49.9795 18.6666Z" fill="#ADB6EC"/>
<path d="M52.977 22.0792L42.5397 27.0156C42.6212 27.1879 42.6985 27.3623 42.7716 27.5387C42.8447 27.7151 42.9133 27.8932 42.9776 28.0726L54.1426 24.0777C53.7968 23.3845 53.407 22.7171 52.977 22.0792Z" fill="#ADB6EC"/>
<path d="M55.0435 26.2281L43.3096 29.1673C43.4023 29.5374 43.4768 29.9118 43.5328 30.2893L55.6555 28.491C55.5005 27.7174 55.2954 26.9619 55.0435 26.2281Z" fill="#ADB6EC"/>
<path d="M55.9634 30.8226L43.6449 31.4277C43.6542 31.618 43.6589 31.8087 43.6589 31.9997C43.6589 33.5306 43.3574 35.0464 42.7716 36.4607C42.1858 37.875 41.3271 39.1601 40.2446 40.2426C39.1621 41.3251 37.8771 42.1837 36.4628 42.7695C35.0485 43.3554 33.5326 43.6568 32.0018 43.6568C30.4709 43.6568 28.9551 43.3554 27.5408 42.7695C26.1265 42.1837 24.8414 41.3251 23.7589 40.2426C22.6765 39.1601 21.8178 37.875 21.232 36.4607C21.0002 35.9012 20.813 35.3259 20.6713 34.7399C21.989 43.2531 29.3492 49.77 38.2315 49.77C48.0458 49.77 56.0018 41.814 56.0018 31.9997C56.0018 31.6042 55.9889 31.2117 55.9634 30.8226Z" fill="#ADB6EC"/>
<path d="M20.6713 29.2597C20.6787 29.2289 20.6863 29.1981 20.694 29.1673L20.6861 29.1653C20.6811 29.1967 20.6761 29.2282 20.6713 29.2597Z" fill="#ADB6EC"/>
<path d="M20.9065 28.0298L21.0261 28.0725C21.0903 27.8932 21.1589 27.7151 21.232 27.5387C21.3051 27.3623 21.3824 27.1879 21.4639 27.0156L21.2058 26.8936C21.0939 27.2673 20.994 27.6461 20.9065 28.0298Z" fill="#ADB6EC"/>
<path d="M21.5884 25.7581L22.0032 26.0068C22.1993 25.6795 22.4114 25.362 22.6387 25.0556L22.0588 24.6255C21.8895 24.9964 21.7325 25.3741 21.5884 25.7581Z" fill="#ADB6EC"/>
<path d="M22.6227 23.4989L23.3644 24.1713C23.4924 24.0301 23.624 23.8919 23.7589 23.7569C23.894 23.6219 24.0322 23.4903 24.1733 23.3623L23.2858 22.383C23.0516 22.7461 22.8304 23.1184 22.6227 23.4989Z" fill="#ADB6EC"/>
<path d="M24.0545 21.284L25.0577 22.6366C25.3641 22.4093 25.6816 22.1972 26.0089 22.0011L24.9353 20.21C24.6281 20.5562 24.3343 20.9145 24.0545 21.284Z" fill="#ADB6EC"/>
<path d="M25.9345 19.1715L27.0177 21.4618C27.19 21.3803 27.3644 21.303 27.5408 21.2299C27.7172 21.1569 27.8953 21.0882 28.0746 21.024L27.0576 18.1815C26.6693 18.4958 26.2947 18.8261 25.9345 19.1715Z" fill="#ADB6EC"/>
<path d="M28.3086 17.2558L29.1693 20.692C29.5395 20.5992 29.9139 20.5248 30.2914 20.4688L29.6898 16.4133C29.2158 16.6736 28.755 16.9548 28.3086 17.2558Z" fill="#ADB6EC"/>
<defs>
<linearGradient id="paint0_linear_3129_3174" x1="1.04018" y1="2.47999" x2="53.2402" y2="56" gradientUnits="userSpaceOnUse">
<stop offset="0.0363151" stop-color="#C9D0FE"/>
<stop offset="1" stop-color="white"/>
</linearGradient>
<linearGradient id="paint1_linear_3129_3174" x1="1.04018" y1="2.47999" x2="53.2402" y2="56" gradientUnits="userSpaceOnUse">
<stop offset="0.0363151" stop-color="#C9D0FE"/>
<stop offset="1" stop-color="white"/>
</linearGradient>
<linearGradient id="paint2_linear_3129_3174" x1="1.04018" y1="2.47999" x2="53.2402" y2="56" gradientUnits="userSpaceOnUse">
<stop offset="0.0363151" stop-color="#C9D0FE"/>
<stop offset="1" stop-color="white"/>
</linearGradient>
<linearGradient id="paint3_linear_3129_3174" x1="1.04018" y1="2.47999" x2="53.2402" y2="56" gradientUnits="userSpaceOnUse">
<stop offset="0.0363151" stop-color="#C9D0FE"/>
<stop offset="1" stop-color="white"/>
</linearGradient>
<linearGradient id="paint4_linear_3129_3174" x1="1.04018" y1="2.47999" x2="53.2402" y2="56" gradientUnits="userSpaceOnUse">
<stop offset="0.0363151" stop-color="#C9D0FE"/>
<stop offset="1" stop-color="white"/>
</linearGradient>
<linearGradient id="paint5_linear_3129_3174" x1="1.04018" y1="2.47999" x2="53.2402" y2="56" gradientUnits="userSpaceOnUse">
<stop offset="0.0363151" stop-color="#C9D0FE"/>
<stop offset="1" stop-color="white"/>
</linearGradient>
<linearGradient id="paint6_linear_3129_3174" x1="1.04018" y1="2.47999" x2="53.2402" y2="56" gradientUnits="userSpaceOnUse">
<stop offset="0.0363151" stop-color="#C9D0FE"/>
<stop offset="1" stop-color="white"/>
</linearGradient>
<linearGradient id="paint7_linear_3129_3174" x1="1.04018" y1="2.47999" x2="53.2402" y2="56" gradientUnits="userSpaceOnUse">
<stop offset="0.0363151" stop-color="#C9D0FE"/>
<stop offset="1" stop-color="white"/>
</linearGradient>
<linearGradient id="paint8_linear_3129_3174" x1="1.04018" y1="2.47999" x2="53.2402" y2="56" gradientUnits="userSpaceOnUse">
<stop offset="0.0363151" stop-color="#C9D0FE"/>
<stop offset="1" stop-color="white"/>
</linearGradient>
<linearGradient id="paint9_linear_3129_3174" x1="1.04018" y1="2.47999" x2="53.2402" y2="56" gradientUnits="userSpaceOnUse">
<stop offset="0.0363151" stop-color="#C9D0FE"/>
<stop offset="1" stop-color="white"/>
</linearGradient>
<linearGradient id="paint10_linear_3129_3174" x1="1.04018" y1="2.47999" x2="53.2402" y2="56" gradientUnits="userSpaceOnUse">
<stop offset="0.0363151" stop-color="#C9D0FE"/>
<stop offset="1" stop-color="white"/>
</linearGradient>
<linearGradient id="paint11_linear_3129_3174" x1="1.04018" y1="2.47999" x2="53.2402" y2="56" gradientUnits="userSpaceOnUse">
<stop offset="0.0363151" stop-color="#C9D0FE"/>
<stop offset="1" stop-color="white"/>
</linearGradient>
<linearGradient id="paint12_linear_3129_3174" x1="1.04018" y1="2.47999" x2="53.2402" y2="56" gradientUnits="userSpaceOnUse">
<stop offset="0.0363151" stop-color="#C9D0FE"/>
<stop offset="1" stop-color="white"/>
</linearGradient>
<linearGradient id="paint13_linear_3129_3174" x1="1.04018" y1="2.47999" x2="53.2402" y2="56" gradientUnits="userSpaceOnUse">
<stop offset="0.0363151" stop-color="#C9D0FE"/>
<stop offset="1" stop-color="white"/>
</linearGradient>
<linearGradient id="paint14_linear_3129_3174" x1="1.04018" y1="2.47999" x2="53.2402" y2="56" gradientUnits="userSpaceOnUse">
<stop offset="0.0363151" stop-color="#C9D0FE"/>
<stop offset="1" stop-color="white"/>
</linearGradient>
<linearGradient id="paint15_linear_3129_3174" x1="1.04018" y1="2.47999" x2="53.2402" y2="56" gradientUnits="userSpaceOnUse">
<stop offset="0.0363151" stop-color="#C9D0FE"/>
<stop offset="1" stop-color="white"/>
</linearGradient>
</defs>
</svg>
