<svg width="32" height="32" viewBox="0 0 32 32" fill="none" xmlns="http://www.w3.org/2000/svg">
<path fill-rule="evenodd" clip-rule="evenodd" d="M16 3.99992C9.37256 3.99992 3.99998 9.3725 3.99998 15.9999C3.99998 22.6273 9.37256 27.9999 16 27.9999C22.6274 27.9999 28 22.6273 28 15.9999C28 9.3725 22.6274 3.99992 16 3.99992ZM1.33331 15.9999C1.33331 7.89974 7.8998 1.33325 16 1.33325C24.1002 1.33325 30.6666 7.89974 30.6666 15.9999C30.6666 24.1001 24.1002 30.6666 16 30.6666C7.8998 30.6666 1.33331 24.1001 1.33331 15.9999ZM16 9.33325C16.7364 9.33325 17.3333 9.93021 17.3333 10.6666V15.9999C17.3333 16.7363 16.7364 17.3333 16 17.3333C15.2636 17.3333 14.6666 16.7363 14.6666 15.9999V10.6666C14.6666 9.93021 15.2636 9.33325 16 9.33325ZM14.6666 21.3333C14.6666 20.5969 15.2636 19.9999 16 19.9999H16.0133C16.7497 19.9999 17.3466 20.5969 17.3466 21.3333C17.3466 22.0696 16.7497 22.6666 16.0133 22.6666H16C15.2636 22.6666 14.6666 22.0696 14.6666 21.3333Z" fill="black"/>
</svg>
