<svg width="18" height="18" viewBox="0 0 18 18" fill="none" xmlns="http://www.w3.org/2000/svg">
<path fill-rule="evenodd" clip-rule="evenodd" d="M12.3754 3.15086C11.0381 2.37924 9.47662 2.08941 7.95147 2.3297C6.42632 2.56998 5.02963 3.32586 3.99434 4.47128C2.95904 5.6167 2.34771 7.08243 2.2623 8.62403C2.17688 10.1656 2.62254 11.6899 3.52496 12.9427C4.42738 14.1955 5.732 15.101 7.22128 15.5083C8.71055 15.9156 10.2944 15.8001 11.7088 15.1809C13.1232 14.5618 14.2826 13.4764 14.9936 12.1059C15.7046 10.7354 15.9243 9.16262 15.616 7.64974C15.5333 7.24387 15.7953 6.8478 16.2012 6.76509C16.6071 6.68239 17.0031 6.94437 17.0858 7.35025C17.4626 9.19932 17.1941 11.1217 16.3251 12.7967C15.456 14.4718 14.039 15.7983 12.3103 16.555C10.5817 17.3118 8.64579 17.453 6.82557 16.9552C5.00535 16.4574 3.4108 15.3506 2.30785 13.8194C1.20489 12.2882 0.660197 10.4252 0.764594 8.54104C0.868991 6.65686 1.61617 4.86542 2.88153 3.46546C4.14689 2.06551 5.85395 1.14165 7.71803 0.847972C9.5821 0.554291 11.4905 0.908532 13.125 1.85162C13.4838 2.05863 13.6068 2.51729 13.3998 2.87607C13.1928 3.23484 12.7341 3.35787 12.3754 3.15086ZM17.0305 2.46966C17.3234 2.76256 17.3234 3.23743 17.0305 3.53032L9.53053 11.0303C9.23763 11.3232 8.76276 11.3232 8.46987 11.0303L6.21987 8.78032C5.92697 8.48743 5.92697 8.01256 6.21987 7.71966C6.51276 7.42677 6.98763 7.42677 7.28053 7.71966L9.0002 9.43933L15.9699 2.46966C16.2628 2.17677 16.7376 2.17677 17.0305 2.46966Z" fill="#535964"/>
</svg>
