<svg width="18" height="18" viewBox="0 0 18 18" fill="none" xmlns="http://www.w3.org/2000/svg">
<g clip-path="url(#clip0_5163_1690)">
<path fill-rule="evenodd" clip-rule="evenodd" d="M9 2.25C5.27208 2.25 2.25 5.27208 2.25 9C2.25 12.7279 5.27208 15.75 9 15.75C12.7279 15.75 15.75 12.7279 15.75 9C15.75 5.27208 12.7279 2.25 9 2.25ZM0.75 9C0.75 4.44365 4.44365 0.75 9 0.75C13.5563 0.75 17.25 4.44365 17.25 9C17.25 13.5563 13.5563 17.25 9 17.25C4.44365 17.25 0.75 13.5563 0.75 9ZM9 3.75C9.41421 3.75 9.75 4.08579 9.75 4.5V7.78647L11.6646 6.82918C12.0351 6.64394 12.4856 6.79411 12.6708 7.16459C12.8561 7.53507 12.7059 7.98558 12.3354 8.17082L9.33541 9.67082C9.10292 9.78707 8.82681 9.77464 8.6057 9.63799C8.38459 9.50133 8.25 9.25993 8.25 9V4.5C8.25 4.08579 8.58579 3.75 9 3.75Z" fill="#535964"/>
</g>
<defs>
<clipPath id="clip0_5163_1690">
<rect width="18" height="18" fill="white"/>
</clipPath>
</defs>
</svg>
