<svg width="20" height="20" viewBox="0 0 20 20" fill="none" xmlns="http://www.w3.org/2000/svg">
<path fill-rule="evenodd" clip-rule="evenodd" d="M2.5 4.99996C2.5 4.53972 2.8731 4.16663 3.33333 4.16663H16.6667C17.1269 4.16663 17.5 4.53972 17.5 4.99996C17.5 5.4602 17.1269 5.83329 16.6667 5.83329H3.33333C2.8731 5.83329 2.5 5.4602 2.5 4.99996ZM2.5 9.99996C2.5 9.53972 2.8731 9.16663 3.33333 9.16663H16.6667C17.1269 9.16663 17.5 9.53972 17.5 9.99996C17.5 10.4602 17.1269 10.8333 16.6667 10.8333H3.33333C2.8731 10.8333 2.5 10.4602 2.5 9.99996ZM2.5 15C2.5 14.5397 2.8731 14.1666 3.33333 14.1666H16.6667C17.1269 14.1666 17.5 14.5397 17.5 15C17.5 15.4602 17.1269 15.8333 16.6667 15.8333H3.33333C2.8731 15.8333 2.5 15.4602 2.5 15Z" fill="#F9FAFA"/>
</svg>
