<svg width="20" height="20" viewBox="0 0 20 20" fill="none" xmlns="http://www.w3.org/2000/svg">
<path fill-rule="evenodd" clip-rule="evenodd" d="M7.49998 3.33329C6.11927 3.33329 4.99998 4.45258 4.99998 5.83329C4.99998 7.214 6.11927 8.33329 7.49998 8.33329C8.88069 8.33329 9.99998 7.214 9.99998 5.83329C9.99998 4.45258 8.88069 3.33329 7.49998 3.33329ZM3.33331 5.83329C3.33331 3.53211 5.19879 1.66663 7.49998 1.66663C9.80117 1.66663 11.6666 3.53211 11.6666 5.83329C11.6666 8.13448 9.80117 9.99996 7.49998 9.99996C5.19879 9.99996 3.33331 8.13448 3.33331 5.83329ZM12.526 2.40159C12.6402 1.95574 13.0942 1.68684 13.54 1.801C14.4363 2.03048 15.2307 2.55173 15.798 3.28257C16.3653 4.01342 16.6732 4.91228 16.6732 5.83746C16.6732 6.76264 16.3653 7.6615 15.798 8.39234C15.2307 9.12319 14.4363 9.64444 13.54 9.87392C13.0942 9.98807 12.6402 9.71918 12.526 9.27333C12.4119 8.82747 12.6808 8.37349 13.1266 8.25933C13.6644 8.12165 14.141 7.8089 14.4814 7.37039C14.8218 6.93188 15.0065 6.39257 15.0065 5.83746C15.0065 5.28235 14.8218 4.74303 14.4814 4.30453C14.141 3.86602 13.6644 3.55327 13.1266 3.41558C12.6808 3.30143 12.4119 2.84745 12.526 2.40159ZM2.0537 12.887C2.8351 12.1056 3.89491 11.6666 4.99998 11.6666H9.99998C11.105 11.6666 12.1649 12.1056 12.9463 12.887C13.7277 13.6684 14.1666 14.7282 14.1666 15.8333V17.5C14.1666 17.9602 13.7936 18.3333 13.3333 18.3333C12.8731 18.3333 12.5 17.9602 12.5 17.5V15.8333C12.5 15.1703 12.2366 14.5344 11.7677 14.0655C11.2989 13.5967 10.663 13.3333 9.99998 13.3333H4.99998C4.33694 13.3333 3.70105 13.5967 3.23221 14.0655C2.76337 14.5344 2.49998 15.1703 2.49998 15.8333V17.5C2.49998 17.9602 2.12688 18.3333 1.66665 18.3333C1.20641 18.3333 0.833313 17.9602 0.833313 17.5V15.8333C0.833313 14.7282 1.2723 13.6684 2.0537 12.887ZM15.0264 12.4C15.1415 11.9543 15.596 11.6864 16.0416 11.8014C16.9355 12.0322 17.7275 12.5534 18.2931 13.283C18.8587 14.0126 19.166 14.9095 19.1666 15.8327V17.5C19.1666 17.9602 18.7936 18.3333 18.3333 18.3333C17.8731 18.3333 17.5 17.9602 17.5 17.5V15.8339C17.4996 15.28 17.3152 14.7419 16.9758 14.3041C16.6365 13.8663 16.1613 13.5536 15.625 13.4152C15.1794 13.3001 14.9114 12.8456 15.0264 12.4Z" fill="#F9FAFA"/>
</svg>
