<svg width="14" height="14" viewBox="0 0 14 14" fill="none" xmlns="http://www.w3.org/2000/svg">
<g clip-path="url(#clip0_5163_825)">
<path fill-rule="evenodd" clip-rule="evenodd" d="M9.6254 2.45063C8.58526 1.85048 7.37081 1.62506 6.18458 1.81194C4.99835 1.99883 3.91205 2.58674 3.10682 3.47762C2.30159 4.3685 1.82611 5.50851 1.75967 6.70753C1.69324 7.90656 2.03986 9.09211 2.74174 10.0665C3.44362 11.0409 4.45833 11.7452 5.61666 12.062C6.77498 12.3788 8.0069 12.2889 9.10697 11.8073C10.207 11.3258 11.1088 10.4816 11.6618 9.4157C12.2148 8.34975 12.3857 7.12644 12.1459 5.94976C12.0816 5.63408 12.2854 5.32602 12.601 5.2617C12.9167 5.19738 13.2248 5.40114 13.2891 5.71682C13.5821 7.15499 13.3733 8.65015 12.6974 9.95297C12.0215 11.2558 10.9194 12.2875 9.57482 12.8761C8.23029 13.4647 6.72461 13.5745 5.30888 13.1873C3.89316 12.8001 2.65296 11.9393 1.7951 10.7484C0.937248 9.55748 0.513595 8.10846 0.594793 6.64299C0.67599 5.17752 1.25713 3.78418 2.2413 2.69532C3.22547 1.60646 4.55318 0.887912 6.00302 0.659493C7.45285 0.431074 8.93718 0.706596 10.2085 1.44011C10.4875 1.60112 10.5832 1.95785 10.4222 2.2369C10.2612 2.51595 9.90445 2.61164 9.6254 2.45063ZM13.2461 1.92081C13.4739 2.14861 13.4739 2.51796 13.2461 2.74577L7.41274 8.5791C7.18494 8.80691 6.81559 8.80691 6.58778 8.5791L4.83778 6.8291C4.60998 6.60129 4.60998 6.23195 4.83778 6.00414C5.06559 5.77634 5.43494 5.77634 5.66274 6.00414L7.00026 7.34166L12.4211 1.92081C12.6489 1.693 13.0183 1.693 13.2461 1.92081Z" fill="#F9FAFA"/>
</g>
<defs>
<clipPath id="clip0_5163_825">
<rect width="14" height="14" fill="white"/>
</clipPath>
</defs>
</svg>
