<svg width="14" height="14" viewBox="0 0 14 14" fill="none" xmlns="http://www.w3.org/2000/svg">
<path fill-rule="evenodd" clip-rule="evenodd" d="M3.08736 3.0876C3.31516 2.8598 3.68451 2.8598 3.91232 3.0876L6.99984 6.17512L10.0874 3.0876C10.3152 2.8598 10.6845 2.8598 10.9123 3.0876C11.1401 3.31541 11.1401 3.68475 10.9123 3.91256L7.82479 7.00008L10.9123 10.0876C11.1401 10.3154 11.1401 10.6848 10.9123 10.9126C10.6845 11.1404 10.3152 11.1404 10.0874 10.9126L6.99984 7.82504L3.91232 10.9126C3.68451 11.1404 3.31516 11.1404 3.08736 10.9126C2.85955 10.6848 2.85955 10.3154 3.08736 10.0876L6.17488 7.00008L3.08736 3.91256C2.85955 3.68475 2.85955 3.31541 3.08736 3.0876Z" fill="#F9FAFA"/>
</svg>
