<svg width="20" height="20" viewBox="0 0 20 20" fill="none" xmlns="http://www.w3.org/2000/svg">
<path d="M17.5 12.2969C15.2837 13.4769 12.8147 14.1203 10.2929 14.1666L9.99998 14.1694C7.3767 14.1694 4.80201 13.5226 2.49998 12.2969V14.9999C2.49998 15.4602 2.87308 15.8333 3.33331 15.8333H16.6666C17.1269 15.8333 17.5 15.4602 17.5 14.9999V12.2969ZM10.0081 9.16659L10.0936 9.17106C10.5137 9.21377 10.8415 9.56847 10.8415 9.99992C10.8415 10.4314 10.5137 10.7861 10.0936 10.8288L10.0081 10.8333H9.99998C9.53974 10.8333 9.16665 10.4602 9.16665 9.99992C9.16665 9.53968 9.53974 9.16659 9.99998 9.16659H10.0081ZM17.5 6.66659C17.5 6.20635 17.1269 5.83325 16.6666 5.83325H3.33331C2.87308 5.83325 2.49998 6.20635 2.49998 6.66659V10.3759C4.75222 11.7645 7.34828 12.5028 9.99998 12.5028L10.2624 12.5003C12.8227 12.4533 15.3221 11.7186 17.5 10.3759V6.66659ZM12.5 3.33325C12.5 3.11224 12.4121 2.90034 12.2558 2.74406C12.0996 2.58778 11.8877 2.49992 11.6666 2.49992H8.33331C8.1123 2.49992 7.9004 2.58778 7.74412 2.74406C7.58784 2.90034 7.49998 3.11224 7.49998 3.33325V4.16659H12.5V3.33325ZM14.1666 4.16659H16.6666C18.0474 4.16659 19.1666 5.28587 19.1666 6.66659V14.9999C19.1666 16.3806 18.0474 17.4999 16.6666 17.4999H3.33331C1.9526 17.4999 0.833313 16.3806 0.833313 14.9999V6.66659C0.833313 5.28587 1.9526 4.16659 3.33331 4.16659H5.83331V3.33325C5.83331 2.67021 6.09689 2.03451 6.56574 1.56567C7.03458 1.09683 7.67027 0.833252 8.33331 0.833252H11.6666C12.3297 0.833252 12.9654 1.09683 13.4342 1.56567C13.9031 2.03451 14.1666 2.67021 14.1666 3.33325V4.16659Z" fill="#F9FAFA"/>
</svg>
