<svg width="20" height="20" viewBox="0 0 20 20" fill="none" xmlns="http://www.w3.org/2000/svg">
<path fill-rule="evenodd" clip-rule="evenodd" d="M13.7982 2.5231C13.3957 2.47762 12.9865 2.4908 12.5834 2.56424C11.7502 2.71606 10.983 3.11822 10.384 3.71714C9.78513 4.31605 9.38297 5.08326 9.23114 5.91654C9.07932 6.74981 9.18505 7.60956 9.53424 8.38122C9.67724 8.69723 9.60954 9.06877 9.36428 9.31404L3.60594 15.0724C3.4307 15.2476 3.33226 15.4853 3.33226 15.7331C3.33226 15.9809 3.4307 16.2186 3.60594 16.3939C3.78118 16.5691 4.01886 16.6675 4.26669 16.6675C4.51452 16.6675 4.75219 16.5691 4.92743 16.3939L10.6858 10.6355C10.931 10.3903 11.3026 10.3226 11.6186 10.4656C12.3902 10.8148 13.25 10.9205 14.0833 10.7687C14.9165 10.6168 15.6838 10.2147 16.2827 9.61576C16.8816 9.01685 17.2837 8.24963 17.4356 7.41636C17.509 7.01332 17.5222 6.60408 17.4767 6.20161L15.3393 8.33904L15.3334 8.3449C15.0218 8.65028 14.6029 8.82133 14.1667 8.82133C13.7304 8.82133 13.3116 8.65028 13 8.3449L12.9941 8.33904L11.6608 7.0057L11.6549 6.99978C11.3495 6.68823 11.1785 6.26937 11.1785 5.83311C11.1785 5.39686 11.3495 4.97799 11.6549 4.66645L11.6608 4.66053L13.7982 2.5231ZM12.2847 0.924563C13.4513 0.712009 14.6549 0.860029 15.7352 1.3489C15.9845 1.46168 16.1625 1.6896 16.2115 1.95874C16.2606 2.22787 16.1744 2.50393 15.9809 2.69737L12.8452 5.83311L14.1667 7.1546L17.3024 4.01886C17.4959 3.82542 17.7719 3.73924 18.0411 3.78828C18.3102 3.83731 18.5381 4.01532 18.6509 4.26455C19.1398 5.34488 19.2878 6.54853 19.0752 7.71511C18.8627 8.88169 18.2997 9.95579 17.4612 10.7943C16.6227 11.6327 15.5486 12.1958 14.382 12.4083C13.4091 12.5856 12.4105 12.5121 11.4791 12.1992L6.10594 17.5724C5.61814 18.0602 4.95654 18.3342 4.26669 18.3342C3.57683 18.3342 2.91523 18.0602 2.42743 17.5724C1.93963 17.0846 1.66559 16.423 1.66559 15.7331C1.66559 15.0433 1.93963 14.3817 2.42743 13.8939L7.80056 8.52073C7.48772 7.58932 7.41421 6.59066 7.59147 5.61778C7.80402 4.4512 8.36706 3.3771 9.20553 2.53863C10.044 1.70015 11.1181 1.13712 12.2847 0.924563Z" fill="#F9FAFA"/>
</svg>
