<svg width="20" height="20" viewBox="0 0 20 20" fill="none" xmlns="http://www.w3.org/2000/svg">
<g clip-path="url(#clip0_3137_16013)">
<path fill-rule="evenodd" clip-rule="evenodd" d="M9.99967 2.50016C5.85754 2.50016 2.49967 5.85803 2.49967 10.0002C2.49967 12.2267 3.46988 14.2266 5.01058 15.6002C5.06469 15.0227 5.31838 14.4793 5.73191 14.0657C6.20075 13.5969 6.83663 13.3335 7.49967 13.3335H12.4997C13.1627 13.3335 13.7986 13.5969 14.2674 14.0657C14.681 14.4793 14.9347 15.0227 14.9888 15.6002C16.5295 14.2266 17.4997 12.2267 17.4997 10.0002C17.4997 5.85803 14.1418 2.50016 9.99967 2.50016ZM13.333 16.7206V15.8335C13.333 15.6125 13.2452 15.4005 13.0889 15.2442C12.9326 15.088 12.7207 15.0002 12.4997 15.0002H7.49967C7.27866 15.0002 7.0667 15.088 6.91042 15.2442C6.75414 15.4005 6.66634 15.6125 6.66634 15.8335V16.7206C7.67047 17.2196 8.80231 17.5002 9.99967 17.5002C11.197 17.5002 12.3289 17.2196 13.333 16.7206ZM0.833008 10.0002C0.833008 4.93755 4.93706 0.833496 9.99967 0.833496C15.0623 0.833496 19.1663 4.93755 19.1663 10.0002C19.1663 15.0628 15.0623 19.1668 9.99967 19.1668C4.93706 19.1668 0.833008 15.0628 0.833008 10.0002ZM9.99967 6.66683C9.0792 6.66683 8.33301 7.41302 8.33301 8.3335C8.33301 9.25397 9.0792 10.0002 9.99967 10.0002C10.9201 10.0002 11.6663 9.25397 11.6663 8.3335C11.6663 7.41302 10.9201 6.66683 9.99967 6.66683ZM6.66634 8.3335C6.66634 6.49255 8.15873 5.00016 9.99967 5.00016C11.8406 5.00016 13.333 6.49255 13.333 8.3335C13.333 10.1744 11.8406 11.6668 9.99967 11.6668C8.15873 11.6668 6.66634 10.1744 6.66634 8.3335Z" fill="#E3E5E8"/>
</g>
<defs>
<clipPath id="clip0_3137_16013">
<rect width="20" height="20" fill="white"/>
</clipPath>
</defs>
</svg>
