<svg width="200" height="92" viewBox="0 0 200 92" fill="none" xmlns="http://www.w3.org/2000/svg">
<mask id="path-1-inside-1_3129_3292" fill="white">
<path d="M0 0H200V92H0V0Z"/>
</mask>
<path d="M200 91H0V93H200V91Z" fill="#1E2024" mask="url(#path-1-inside-1_3129_3292)"/>
<path d="M41.5048 35.9201C41.6696 35.912 41.8347 35.908 42 35.908C42.1654 35.908 42.3305 35.912 42.4952 35.9201L43.0195 25.2473C42.6803 25.2306 42.3404 25.2222 42 25.2222C41.6597 25.2222 41.3197 25.2306 40.9805 25.2473L41.5048 35.9201Z" fill="url(#paint0_linear_3129_3292)"/>
<path d="M39.5478 36.2104C39.8683 36.1302 40.1924 36.0656 40.5192 36.0172L38.9513 25.4471C38.2786 25.5469 37.6111 25.6797 36.9514 25.8449L39.5478 36.2104Z" fill="url(#paint1_linear_3129_3292)"/>
<path d="M43.4808 36.0172C43.8076 36.0656 44.1318 36.1302 44.4522 36.2104L47.0486 25.8449C46.3889 25.6797 45.7215 25.5469 45.0488 25.4471L43.4808 36.0172Z" fill="url(#paint2_linear_3129_3292)"/>
<path d="M38.1379 36.6761C38.2907 36.6129 38.4448 36.5535 38.6001 36.4979L35.0002 26.4368C34.6804 26.5512 34.3632 26.6736 34.0487 26.8038C33.7342 26.9341 33.4234 27.0719 33.1164 27.2171L37.6851 36.8769C37.8342 36.8064 37.9852 36.7394 38.1379 36.6761Z" fill="url(#paint3_linear_3129_3292)"/>
<path d="M45.3999 36.4979C45.5552 36.5535 45.7094 36.6129 45.8621 36.6761C46.0148 36.7394 46.1658 36.8064 46.3149 36.8769L50.8837 27.2171C50.5766 27.0719 50.2658 26.9341 49.9513 26.8038C49.6369 26.6736 49.3196 26.5512 48.9999 26.4368L45.3999 36.4979Z" fill="url(#paint4_linear_3129_3292)"/>
<path d="M35.9882 37.894C36.2535 37.6972 36.5283 37.5136 36.8117 37.3438L31.3181 28.1783C30.7348 28.5279 30.169 28.906 29.6227 29.3111L35.9882 37.894Z" fill="url(#paint5_linear_3129_3292)"/>
<path d="M47.1884 37.3438C47.4717 37.5136 47.7466 37.6972 48.0119 37.894L54.3773 29.3111C53.8311 28.906 53.2653 28.528 52.6819 28.1783L47.1884 37.3438Z" fill="url(#paint6_linear_3129_3292)"/>
<path d="M34.8639 38.8639C34.9807 38.747 35.1004 38.633 35.2226 38.5223L28.0465 30.6047C27.7948 30.8328 27.5486 31.0673 27.3079 31.3079C27.0673 31.5486 26.8328 31.7948 26.6047 32.0465L34.5223 39.2226C34.633 39.1004 34.747 38.9807 34.8639 38.8639Z" fill="url(#paint7_linear_3129_3292)"/>
<path d="M48.7775 38.5223C48.8997 38.633 49.0193 38.747 49.1362 38.8639C49.2531 38.9807 49.367 39.1004 49.4778 39.2226L57.3953 32.0465C57.1672 31.7948 56.9328 31.5486 56.6921 31.3079C56.4515 31.0673 56.2052 30.8328 55.9535 30.6047L48.7775 38.5223Z" fill="url(#paint8_linear_3129_3292)"/>
<path d="M33.3438 40.8117C33.5136 40.5283 33.6972 40.2535 33.894 39.9882L25.3111 33.6227C24.906 34.169 24.528 34.7348 24.1783 35.3181L33.3438 40.8117Z" fill="url(#paint9_linear_3129_3292)"/>
<path d="M50.106 39.9882C50.3028 40.2535 50.4864 40.5283 50.6563 40.8117L59.8217 35.3181C59.4721 34.7348 59.094 34.169 58.6889 33.6227L50.106 39.9882Z" fill="url(#paint10_linear_3129_3292)"/>
<path d="M32.6761 42.1379C32.7394 41.9852 32.8064 41.8342 32.8769 41.6851L23.2171 37.1164C23.0719 37.4234 22.9341 37.7342 22.8038 38.0487C22.6736 38.3631 22.5512 38.6804 22.4368 39.0002L32.4979 42.6001C32.5535 42.4448 32.6129 42.2907 32.6761 42.1379Z" fill="url(#paint11_linear_3129_3292)"/>
<path d="M51.1231 41.6851C51.1937 41.8342 51.2606 41.9852 51.3239 42.1379C51.3871 42.2907 51.4466 42.4448 51.5022 42.6001L61.5632 39.0002C61.4488 38.6804 61.3265 38.3632 61.1962 38.0487C61.0659 37.7342 60.9281 37.4234 60.7829 37.1164L51.1231 41.6851Z" fill="url(#paint12_linear_3129_3292)"/>
<path d="M32.0172 44.5192C32.0656 44.1924 32.1302 43.8683 32.2104 43.5478L21.8449 40.9514C21.6797 41.6111 21.5469 42.2785 21.4471 42.9513L32.0172 44.5192Z" fill="url(#paint13_linear_3129_3292)"/>
<path d="M51.7896 43.5478C51.8699 43.8683 51.9344 44.1924 51.9829 44.5192L62.5529 42.9513C62.4531 42.2786 62.3204 41.6111 62.1551 40.9514L51.7896 43.5478Z" fill="url(#paint14_linear_3129_3292)"/>
<path d="M31.908 46C31.908 45.8347 31.912 45.6696 31.9201 45.5048L21.2473 44.9805C21.2306 45.3197 21.2222 45.6597 21.2222 46C21.2222 48.7286 21.7597 51.4305 22.8038 53.9513C23.848 56.4722 25.3785 58.7627 27.3079 60.6921C29.2373 62.6215 31.5278 64.152 34.0487 65.1962C36.5696 66.2403 39.2714 66.7778 42 66.7778C44.7286 66.7778 47.4305 66.2403 49.9513 65.1962C52.4722 64.152 54.7627 62.6215 56.6921 60.6921C58.6215 58.7627 60.152 56.4722 61.1962 53.9513C62.2403 51.4305 62.7778 48.7286 62.7778 46C62.7778 45.6597 62.7694 45.3197 62.7528 44.9805L52.0799 45.5048C52.088 45.6696 52.0921 45.8347 52.0921 46C52.0921 47.3253 51.831 48.6376 51.3239 49.8621C50.8167 51.0865 50.0733 52.199 49.1362 53.1362C48.199 54.0733 47.0865 54.8167 45.8621 55.3239C44.6376 55.831 43.3253 56.0921 42 56.0921C40.6747 56.0921 39.3624 55.831 38.1379 55.3239C36.9135 54.8167 35.801 54.0733 34.8639 53.1362C33.9267 52.199 33.1834 51.0865 32.6761 49.8621C32.169 48.6376 31.908 47.3253 31.908 46Z" fill="url(#paint15_linear_3129_3292)"/>
<path d="M42.0014 35.9076C41.8361 35.9076 41.6709 35.9116 41.5062 35.9198L41.3071 31.8667C41.7674 31.6681 42.2394 31.4914 42.7217 31.3378L42.4966 35.9198C42.3318 35.9116 42.1667 35.9076 42.0014 35.9076Z" fill="#5165E1"/>
<path d="M44.2353 30.94L43.4822 36.0168C43.809 36.0653 44.1332 36.1298 44.4536 36.2101L45.8355 30.6933C45.2933 30.7479 44.7594 30.8306 44.2353 30.94Z" fill="#5165E1"/>
<path d="M47.5059 30.6157L45.4013 36.4975C45.5566 36.5531 45.7107 36.6125 45.8634 36.6758C46.0162 36.7391 46.1672 36.806 46.3163 36.8766L49.2266 30.7232C48.6619 30.6562 48.0877 30.6198 47.5059 30.6157Z" fill="#5165E1"/>
<path d="M50.9719 31.0333L47.1898 37.3434C47.4731 37.5132 47.7479 37.6969 48.0132 37.8937L52.7115 31.5587C52.1465 31.3506 51.5659 31.1747 50.9719 31.0333Z" fill="#5165E1"/>
<path d="M54.4129 32.3057L48.7788 38.5219C48.9011 38.6327 49.0206 38.7466 49.1376 38.8635C49.2545 38.9804 49.3683 39.1 49.4791 39.2222L56.0422 33.2738C55.5211 32.919 54.9771 32.5954 54.4129 32.3057Z" fill="#5165E1"/>
<path d="M57.5654 34.4566L50.1074 39.9878C50.3042 40.2531 50.4878 40.528 50.6577 40.8113L58.949 35.8416C58.5175 35.3513 58.0553 34.8886 57.5654 34.4566Z" fill="#5165E1"/>
<path d="M60.1605 37.4111L51.1245 41.6847C51.1951 41.8339 51.262 41.9848 51.3252 42.1376C51.3885 42.2903 51.448 42.4445 51.5035 42.5998L61.1696 39.1412C60.8702 38.5411 60.5328 37.9633 60.1605 37.4111Z" fill="#5165E1"/>
<path d="M61.9495 41.0029L51.791 43.5475C51.8713 43.8679 51.9358 44.1921 51.9843 44.5189L62.4793 42.962C62.3452 42.2923 62.1676 41.6382 61.9495 41.0029Z" fill="#5165E1"/>
<path d="M62.7459 44.9805L52.0813 45.5045C52.0894 45.6692 52.0934 45.8343 52.0934 45.9997C52.0934 47.325 51.8324 48.6373 51.3252 49.8617C50.8181 51.0862 50.0747 52.1987 49.1376 53.1358C48.2004 54.073 47.0879 54.8163 45.8634 55.3235C44.639 55.8307 43.3267 56.0917 42.0014 56.0917C40.6761 56.0917 39.3637 55.8307 38.1393 55.3235C36.9149 54.8163 35.8023 54.073 34.8652 53.1358C33.9281 52.1987 33.1847 51.0862 32.6775 49.8617C32.4769 49.3773 32.3148 48.8792 32.1921 48.372C33.3329 55.7422 39.705 61.3841 47.3947 61.3841C55.8913 61.3841 62.7791 54.4963 62.7791 45.9997C62.7791 45.6572 62.768 45.3174 62.7459 44.9805Z" fill="#5165E1"/>
<path d="M32.1921 43.6275C32.1985 43.6008 32.2051 43.5742 32.2118 43.5475L32.205 43.5458C32.2006 43.573 32.1963 43.6002 32.1921 43.6275Z" fill="#5165E1"/>
<path d="M32.3957 42.5627L32.4993 42.5997C32.5549 42.4445 32.6143 42.2903 32.6775 42.1376C32.7408 41.9848 32.8077 41.8339 32.8783 41.6847L32.6549 41.5791C32.558 41.9026 32.4715 42.2306 32.3957 42.5627Z" fill="#5165E1"/>
<path d="M32.9861 40.5961L33.3452 40.8113C33.515 40.528 33.6986 40.2531 33.8954 39.9878L33.3934 39.6155C33.2467 39.9366 33.1108 40.2636 32.9861 40.5961Z" fill="#5165E1"/>
<path d="M33.8815 38.6402L34.5237 39.2222C34.6344 39.1 34.7483 38.9804 34.8652 38.8635C34.9821 38.7466 35.1018 38.6327 35.224 38.5219L34.4556 37.6741C34.2529 37.9884 34.0613 38.3107 33.8815 38.6402Z" fill="#5165E1"/>
<path d="M35.1211 36.7226L35.9896 37.8937C36.2549 37.6969 36.5297 37.5132 36.8131 37.3434L35.8836 35.7928C35.6177 36.0925 35.3633 36.4027 35.1211 36.7226Z" fill="#5165E1"/>
<path d="M36.7487 34.8937L37.6865 36.8766C37.8356 36.806 37.9866 36.7391 38.1393 36.6758C38.2921 36.6125 38.4462 36.5531 38.6015 36.4975L37.721 34.0367C37.3849 34.3087 37.0605 34.5947 36.7487 34.8937Z" fill="#5165E1"/>
<path d="M38.8041 33.2353L39.5492 36.2101C39.8697 36.1298 40.1938 36.0653 40.5206 36.0168L39.9998 32.5058C39.5895 32.7312 39.1905 32.9747 38.8041 33.2353Z" fill="#5165E1"/>
<path d="M89.8 32.54V47H87.1V40.68H80.31V47H77.61V32.54H80.31V38.76H87.1V32.54H89.8ZM98.9277 40.69C98.9277 40.37 98.881 40.07 98.7877 39.79C98.701 39.5033 98.5677 39.2533 98.3877 39.04C98.2077 38.8267 97.9777 38.66 97.6977 38.54C97.4243 38.4133 97.1043 38.35 96.7377 38.35C96.0243 38.35 95.461 38.5533 95.0477 38.96C94.641 39.3667 94.381 39.9433 94.2677 40.69H98.9277ZM94.2177 42.18C94.2577 42.7067 94.351 43.1633 94.4977 43.55C94.6443 43.93 94.8377 44.2467 95.0777 44.5C95.3177 44.7467 95.601 44.9333 95.9277 45.06C96.261 45.18 96.6277 45.24 97.0277 45.24C97.4277 45.24 97.771 45.1933 98.0577 45.1C98.351 45.0067 98.6043 44.9033 98.8177 44.79C99.0377 44.6767 99.2277 44.5733 99.3877 44.48C99.5543 44.3867 99.7143 44.34 99.8677 44.34C100.074 44.34 100.228 44.4167 100.328 44.57L101.038 45.47C100.764 45.79 100.458 46.06 100.118 46.28C99.7777 46.4933 99.421 46.6667 99.0477 46.8C98.681 46.9267 98.3043 47.0167 97.9177 47.07C97.5377 47.1233 97.1677 47.15 96.8077 47.15C96.0943 47.15 95.431 47.0333 94.8177 46.8C94.2043 46.56 93.671 46.21 93.2177 45.75C92.7643 45.2833 92.4077 44.71 92.1477 44.03C91.8877 43.3433 91.7577 42.55 91.7577 41.65C91.7577 40.95 91.871 40.2933 92.0977 39.68C92.3243 39.06 92.6477 38.5233 93.0677 38.07C93.4943 37.61 94.011 37.2467 94.6177 36.98C95.231 36.7133 95.921 36.58 96.6877 36.58C97.3343 36.58 97.931 36.6833 98.4777 36.89C99.0243 37.0967 99.4943 37.4 99.8877 37.8C100.281 38.1933 100.588 38.68 100.808 39.26C101.034 39.8333 101.148 40.49 101.148 41.23C101.148 41.6033 101.108 41.8567 101.028 41.99C100.948 42.1167 100.794 42.18 100.568 42.18H94.2177ZM105.501 32.14V47H103.031V32.14H105.501ZM110.432 44.34C110.712 44.68 111.016 44.92 111.342 45.06C111.676 45.2 112.036 45.27 112.422 45.27C112.796 45.27 113.132 45.2 113.432 45.06C113.732 44.92 113.986 44.7067 114.192 44.42C114.406 44.1333 114.569 43.7733 114.682 43.34C114.796 42.9 114.852 42.3833 114.852 41.79C114.852 41.19 114.802 40.6833 114.702 40.27C114.609 39.85 114.472 39.51 114.292 39.25C114.112 38.99 113.892 38.8 113.632 38.68C113.379 38.56 113.089 38.5 112.762 38.5C112.249 38.5 111.812 38.61 111.452 38.83C111.092 39.0433 110.752 39.3467 110.432 39.74V44.34ZM110.302 38.14C110.722 37.6667 111.199 37.2833 111.732 36.99C112.266 36.6967 112.892 36.55 113.612 36.55C114.172 36.55 114.682 36.6667 115.142 36.9C115.609 37.1333 116.009 37.4733 116.342 37.92C116.682 38.36 116.942 38.9067 117.122 39.56C117.309 40.2067 117.402 40.95 117.402 41.79C117.402 42.5567 117.299 43.2667 117.092 43.92C116.886 44.5733 116.589 45.14 116.202 45.62C115.822 46.1 115.359 46.4767 114.812 46.75C114.272 47.0167 113.666 47.15 112.992 47.15C112.419 47.15 111.929 47.0633 111.522 46.89C111.116 46.71 110.752 46.4633 110.432 46.15V50.35H107.962V36.74H109.472C109.792 36.74 110.002 36.89 110.102 37.19L110.302 38.14ZM132.266 39.77C132.266 40.83 132.09 41.8033 131.736 42.69C131.383 43.5767 130.886 44.34 130.246 44.98C129.606 45.62 128.836 46.1167 127.936 46.47C127.036 46.8233 126.036 47 124.936 47H119.426V32.54H124.936C126.036 32.54 127.036 32.72 127.936 33.08C128.836 33.4333 129.606 33.93 130.246 34.57C130.886 35.2033 131.383 35.9633 131.736 36.85C132.09 37.7367 132.266 38.71 132.266 39.77ZM129.506 39.77C129.506 38.9767 129.4 38.2667 129.186 37.64C128.98 37.0067 128.676 36.4733 128.276 36.04C127.883 35.6 127.403 35.2633 126.836 35.03C126.276 34.7967 125.643 34.68 124.936 34.68H122.126V44.86H124.936C125.643 44.86 126.276 44.7433 126.836 44.51C127.403 44.2767 127.883 43.9433 128.276 43.51C128.676 43.07 128.98 42.5367 129.186 41.91C129.4 41.2767 129.506 40.5633 129.506 39.77ZM140.725 40.69C140.725 40.37 140.678 40.07 140.585 39.79C140.498 39.5033 140.365 39.2533 140.185 39.04C140.005 38.8267 139.775 38.66 139.495 38.54C139.221 38.4133 138.901 38.35 138.535 38.35C137.821 38.35 137.258 38.5533 136.845 38.96C136.438 39.3667 136.178 39.9433 136.065 40.69H140.725ZM136.015 42.18C136.055 42.7067 136.148 43.1633 136.295 43.55C136.441 43.93 136.635 44.2467 136.875 44.5C137.115 44.7467 137.398 44.9333 137.725 45.06C138.058 45.18 138.425 45.24 138.825 45.24C139.225 45.24 139.568 45.1933 139.855 45.1C140.148 45.0067 140.401 44.9033 140.615 44.79C140.835 44.6767 141.025 44.5733 141.185 44.48C141.351 44.3867 141.511 44.34 141.665 44.34C141.871 44.34 142.025 44.4167 142.125 44.57L142.835 45.47C142.561 45.79 142.255 46.06 141.915 46.28C141.575 46.4933 141.218 46.6667 140.845 46.8C140.478 46.9267 140.101 47.0167 139.715 47.07C139.335 47.1233 138.965 47.15 138.605 47.15C137.891 47.15 137.228 47.0333 136.615 46.8C136.001 46.56 135.468 46.21 135.015 45.75C134.561 45.2833 134.205 44.71 133.945 44.03C133.685 43.3433 133.555 42.55 133.555 41.65C133.555 40.95 133.668 40.2933 133.895 39.68C134.121 39.06 134.445 38.5233 134.865 38.07C135.291 37.61 135.808 37.2467 136.415 36.98C137.028 36.7133 137.718 36.58 138.485 36.58C139.131 36.58 139.728 36.6833 140.275 36.89C140.821 37.0967 141.291 37.4 141.685 37.8C142.078 38.1933 142.385 38.68 142.605 39.26C142.831 39.8333 142.945 40.49 142.945 41.23C142.945 41.6033 142.905 41.8567 142.825 41.99C142.745 42.1167 142.591 42.18 142.365 42.18H136.015ZM151.058 38.74C150.991 38.8467 150.921 38.9233 150.848 38.97C150.775 39.01 150.681 39.03 150.568 39.03C150.448 39.03 150.318 38.9967 150.178 38.93C150.045 38.8633 149.888 38.79 149.708 38.71C149.528 38.6233 149.321 38.5467 149.088 38.48C148.861 38.4133 148.591 38.38 148.278 38.38C147.791 38.38 147.408 38.4833 147.128 38.69C146.855 38.8967 146.718 39.1667 146.718 39.5C146.718 39.72 146.788 39.9067 146.928 40.06C147.075 40.2067 147.265 40.3367 147.498 40.45C147.738 40.5633 148.008 40.6667 148.308 40.76C148.608 40.8467 148.911 40.9433 149.218 41.05C149.531 41.1567 149.838 41.28 150.138 41.42C150.438 41.5533 150.705 41.7267 150.938 41.94C151.178 42.1467 151.368 42.3967 151.508 42.69C151.655 42.9833 151.728 43.3367 151.728 43.75C151.728 44.2433 151.638 44.7 151.458 45.12C151.285 45.5333 151.025 45.8933 150.678 46.2C150.331 46.5 149.901 46.7367 149.388 46.91C148.881 47.0767 148.295 47.16 147.628 47.16C147.275 47.16 146.928 47.1267 146.588 47.06C146.255 47 145.931 46.9133 145.618 46.8C145.311 46.6867 145.025 46.5533 144.758 46.4C144.498 46.2467 144.268 46.08 144.068 45.9L144.638 44.96C144.711 44.8467 144.798 44.76 144.898 44.7C144.998 44.64 145.125 44.61 145.278 44.61C145.431 44.61 145.575 44.6533 145.708 44.74C145.848 44.8267 146.008 44.92 146.188 45.02C146.368 45.12 146.578 45.2133 146.818 45.3C147.065 45.3867 147.375 45.43 147.748 45.43C148.041 45.43 148.291 45.3967 148.498 45.33C148.711 45.2567 148.885 45.1633 149.018 45.05C149.158 44.9367 149.258 44.8067 149.318 44.66C149.385 44.5067 149.418 44.35 149.418 44.19C149.418 43.95 149.345 43.7533 149.198 43.6C149.058 43.4467 148.868 43.3133 148.628 43.2C148.395 43.0867 148.125 42.9867 147.818 42.9C147.518 42.8067 147.208 42.7067 146.888 42.6C146.575 42.4933 146.265 42.37 145.958 42.23C145.658 42.0833 145.388 41.9 145.148 41.68C144.915 41.46 144.725 41.19 144.578 40.87C144.438 40.55 144.368 40.1633 144.368 39.71C144.368 39.29 144.451 38.89 144.618 38.51C144.785 38.13 145.028 37.8 145.348 37.52C145.675 37.2333 146.078 37.0067 146.558 36.84C147.045 36.6667 147.605 36.58 148.238 36.58C148.945 36.58 149.588 36.6967 150.168 36.93C150.748 37.1633 151.231 37.47 151.618 37.85L151.058 38.74ZM156.057 32.14V40.65H156.517C156.684 40.65 156.814 40.63 156.907 40.59C157.007 40.5433 157.107 40.4533 157.207 40.32L159.757 37.17C159.864 37.03 159.981 36.9233 160.107 36.85C160.241 36.7767 160.411 36.74 160.617 36.74H162.877L159.687 40.55C159.461 40.85 159.214 41.08 158.947 41.24C159.087 41.34 159.211 41.4567 159.317 41.59C159.431 41.7233 159.537 41.8667 159.637 42.02L163.057 47H160.827C160.634 47 160.467 46.97 160.327 46.91C160.187 46.8433 160.071 46.7267 159.977 46.56L157.357 42.67C157.264 42.5167 157.167 42.4167 157.067 42.37C156.967 42.3233 156.817 42.3 156.617 42.3H156.057V47H153.587V32.14H156.057Z" fill="#F9FAFA"/>
<path d="M81.0861 61.27L80.2061 58.865C80.1628 58.7583 80.1178 58.6317 80.0711 58.485C80.0245 58.3383 79.9778 58.18 79.9311 58.01C79.8878 58.18 79.8428 58.34 79.7961 58.49C79.7495 58.6367 79.7045 58.765 79.6611 58.875L78.7861 61.27H81.0861ZM83.4611 64H82.4211C82.3045 64 82.2095 63.9717 82.1361 63.915C82.0628 63.855 82.0078 63.7817 81.9711 63.695L81.4311 62.22H78.4361L77.8961 63.695C77.8695 63.7717 77.8178 63.8417 77.7411 63.905C77.6645 63.9683 77.5695 64 77.4561 64H76.4061L79.2511 56.77H80.6211L83.4611 64ZM91.2295 60.385C91.2295 60.915 91.1412 61.4017 90.9645 61.845C90.7878 62.2883 90.5395 62.67 90.2195 62.99C89.8995 63.31 89.5145 63.5583 89.0645 63.735C88.6145 63.9117 88.1145 64 87.5645 64H84.8095V56.77H87.5645C88.1145 56.77 88.6145 56.86 89.0645 57.04C89.5145 57.2167 89.8995 57.465 90.2195 57.785C90.5395 58.1017 90.7878 58.4817 90.9645 58.925C91.1412 59.3683 91.2295 59.855 91.2295 60.385ZM89.8495 60.385C89.8495 59.9883 89.7962 59.6333 89.6895 59.32C89.5862 59.0033 89.4345 58.7367 89.2345 58.52C89.0378 58.3 88.7978 58.1317 88.5145 58.015C88.2345 57.8983 87.9178 57.84 87.5645 57.84H86.1595V62.93H87.5645C87.9178 62.93 88.2345 62.8717 88.5145 62.755C88.7978 62.6383 89.0378 62.4717 89.2345 62.255C89.4345 62.035 89.5862 61.7683 89.6895 61.455C89.7962 61.1383 89.8495 60.7817 89.8495 60.385ZM100.857 56.77V64H99.6719V59.33C99.6719 59.1433 99.6819 58.9417 99.7019 58.725L97.5169 62.83C97.4136 63.0267 97.2552 63.125 97.0419 63.125H96.8519C96.6386 63.125 96.4802 63.0267 96.3769 62.83L94.1669 58.71C94.1769 58.82 94.1852 58.9283 94.1919 59.035C94.1986 59.1417 94.2019 59.24 94.2019 59.33V64H93.0169V56.77H94.0319C94.0919 56.77 94.1436 56.7717 94.1869 56.775C94.2302 56.7783 94.2686 56.7867 94.3019 56.8C94.3386 56.8133 94.3702 56.835 94.3969 56.865C94.4269 56.895 94.4552 56.935 94.4819 56.985L96.6469 61C96.7036 61.1067 96.7552 61.2167 96.8019 61.33C96.8519 61.4433 96.9002 61.56 96.9469 61.68C96.9936 61.5567 97.0419 61.4383 97.0919 61.325C97.1419 61.2083 97.1952 61.0967 97.2519 60.99L99.3869 56.985C99.4136 56.935 99.4419 56.895 99.4719 56.865C99.5019 56.835 99.5336 56.8133 99.5669 56.8C99.6036 56.7867 99.6436 56.7783 99.6869 56.775C99.7302 56.7717 99.7819 56.77 99.8419 56.77H100.857ZM104.42 64H103.07V56.77H104.42V64ZM112.734 56.77V64H112.044C111.937 64 111.847 63.9833 111.774 63.95C111.704 63.9133 111.635 63.8533 111.569 63.77L107.794 58.95C107.814 59.17 107.824 59.3733 107.824 59.56V64H106.639V56.77H107.344C107.4 56.77 107.449 56.7733 107.489 56.78C107.532 56.7833 107.569 56.7933 107.599 56.81C107.632 56.8233 107.664 56.845 107.694 56.875C107.724 56.9017 107.757 56.9383 107.794 56.985L111.584 61.825C111.574 61.7083 111.565 61.5933 111.559 61.48C111.552 61.3667 111.549 61.2617 111.549 61.165V56.77H112.734Z" fill="#8996EB"/>
<defs>
<linearGradient id="paint0_linear_3129_3292" x1="15.1967" y1="20.4433" x2="60.3884" y2="66.7778" gradientUnits="userSpaceOnUse">
<stop offset="0.0363151" stop-color="#3B53F1"/>
<stop offset="0.524591" stop-color="#6D80FD"/>
<stop offset="1" stop-color="#C9D0FE"/>
</linearGradient>
<linearGradient id="paint1_linear_3129_3292" x1="15.1967" y1="20.4433" x2="60.3884" y2="66.7778" gradientUnits="userSpaceOnUse">
<stop offset="0.0363151" stop-color="#3B53F1"/>
<stop offset="0.524591" stop-color="#6D80FD"/>
<stop offset="1" stop-color="#C9D0FE"/>
</linearGradient>
<linearGradient id="paint2_linear_3129_3292" x1="15.1967" y1="20.4433" x2="60.3884" y2="66.7778" gradientUnits="userSpaceOnUse">
<stop offset="0.0363151" stop-color="#3B53F1"/>
<stop offset="0.524591" stop-color="#6D80FD"/>
<stop offset="1" stop-color="#C9D0FE"/>
</linearGradient>
<linearGradient id="paint3_linear_3129_3292" x1="15.1967" y1="20.4433" x2="60.3884" y2="66.7778" gradientUnits="userSpaceOnUse">
<stop offset="0.0363151" stop-color="#3B53F1"/>
<stop offset="0.524591" stop-color="#6D80FD"/>
<stop offset="1" stop-color="#C9D0FE"/>
</linearGradient>
<linearGradient id="paint4_linear_3129_3292" x1="15.1967" y1="20.4433" x2="60.3884" y2="66.7778" gradientUnits="userSpaceOnUse">
<stop offset="0.0363151" stop-color="#3B53F1"/>
<stop offset="0.524591" stop-color="#6D80FD"/>
<stop offset="1" stop-color="#C9D0FE"/>
</linearGradient>
<linearGradient id="paint5_linear_3129_3292" x1="15.1967" y1="20.4433" x2="60.3884" y2="66.7778" gradientUnits="userSpaceOnUse">
<stop offset="0.0363151" stop-color="#3B53F1"/>
<stop offset="0.524591" stop-color="#6D80FD"/>
<stop offset="1" stop-color="#C9D0FE"/>
</linearGradient>
<linearGradient id="paint6_linear_3129_3292" x1="15.1967" y1="20.4433" x2="60.3884" y2="66.7778" gradientUnits="userSpaceOnUse">
<stop offset="0.0363151" stop-color="#3B53F1"/>
<stop offset="0.524591" stop-color="#6D80FD"/>
<stop offset="1" stop-color="#C9D0FE"/>
</linearGradient>
<linearGradient id="paint7_linear_3129_3292" x1="15.1967" y1="20.4433" x2="60.3884" y2="66.7778" gradientUnits="userSpaceOnUse">
<stop offset="0.0363151" stop-color="#3B53F1"/>
<stop offset="0.524591" stop-color="#6D80FD"/>
<stop offset="1" stop-color="#C9D0FE"/>
</linearGradient>
<linearGradient id="paint8_linear_3129_3292" x1="15.1967" y1="20.4433" x2="60.3884" y2="66.7778" gradientUnits="userSpaceOnUse">
<stop offset="0.0363151" stop-color="#3B53F1"/>
<stop offset="0.524591" stop-color="#6D80FD"/>
<stop offset="1" stop-color="#C9D0FE"/>
</linearGradient>
<linearGradient id="paint9_linear_3129_3292" x1="15.1967" y1="20.4433" x2="60.3884" y2="66.7778" gradientUnits="userSpaceOnUse">
<stop offset="0.0363151" stop-color="#3B53F1"/>
<stop offset="0.524591" stop-color="#6D80FD"/>
<stop offset="1" stop-color="#C9D0FE"/>
</linearGradient>
<linearGradient id="paint10_linear_3129_3292" x1="15.1967" y1="20.4433" x2="60.3884" y2="66.7778" gradientUnits="userSpaceOnUse">
<stop offset="0.0363151" stop-color="#3B53F1"/>
<stop offset="0.524591" stop-color="#6D80FD"/>
<stop offset="1" stop-color="#C9D0FE"/>
</linearGradient>
<linearGradient id="paint11_linear_3129_3292" x1="15.1967" y1="20.4433" x2="60.3884" y2="66.7778" gradientUnits="userSpaceOnUse">
<stop offset="0.0363151" stop-color="#3B53F1"/>
<stop offset="0.524591" stop-color="#6D80FD"/>
<stop offset="1" stop-color="#C9D0FE"/>
</linearGradient>
<linearGradient id="paint12_linear_3129_3292" x1="15.1967" y1="20.4433" x2="60.3884" y2="66.7778" gradientUnits="userSpaceOnUse">
<stop offset="0.0363151" stop-color="#3B53F1"/>
<stop offset="0.524591" stop-color="#6D80FD"/>
<stop offset="1" stop-color="#C9D0FE"/>
</linearGradient>
<linearGradient id="paint13_linear_3129_3292" x1="15.1967" y1="20.4433" x2="60.3884" y2="66.7778" gradientUnits="userSpaceOnUse">
<stop offset="0.0363151" stop-color="#3B53F1"/>
<stop offset="0.524591" stop-color="#6D80FD"/>
<stop offset="1" stop-color="#C9D0FE"/>
</linearGradient>
<linearGradient id="paint14_linear_3129_3292" x1="15.1967" y1="20.4433" x2="60.3884" y2="66.7778" gradientUnits="userSpaceOnUse">
<stop offset="0.0363151" stop-color="#3B53F1"/>
<stop offset="0.524591" stop-color="#6D80FD"/>
<stop offset="1" stop-color="#C9D0FE"/>
</linearGradient>
<linearGradient id="paint15_linear_3129_3292" x1="15.1967" y1="20.4433" x2="60.3884" y2="66.7778" gradientUnits="userSpaceOnUse">
<stop offset="0.0363151" stop-color="#3B53F1"/>
<stop offset="0.524591" stop-color="#6D80FD"/>
<stop offset="1" stop-color="#C9D0FE"/>
</linearGradient>
</defs>
</svg>
