<svg width="200" height="92" viewBox="0 0 200 92" fill="none" xmlns="http://www.w3.org/2000/svg">
<mask id="path-1-inside-1_3129_3241" fill="white">
<path d="M0 0H200V92H0V0Z"/>
</mask>
<path d="M200 92V91H0V92V93H200V92Z" fill="#1E2024" mask="url(#path-1-inside-1_3129_3241)"/>
<path d="M41.5052 35.92C41.67 35.912 41.8351 35.9079 42.0004 35.9079C42.1658 35.9079 42.3309 35.912 42.4956 35.92L43.0199 25.2472C42.6808 25.2305 42.3408 25.2222 42.0004 25.2222C41.6601 25.2222 41.3202 25.2305 40.9809 25.2472L41.5052 35.92Z" fill="url(#paint0_linear_3129_3241)"/>
<path d="M39.5482 36.2103C39.8687 36.1301 40.1929 36.0656 40.5196 36.0171L38.9517 25.4471C38.279 25.5468 37.6116 25.6796 36.9519 25.8449L39.5482 36.2103Z" fill="url(#paint1_linear_3129_3241)"/>
<path d="M43.4813 36.0171C43.808 36.0656 44.1322 36.1301 44.4526 36.2103L47.049 25.8449C46.3893 25.6796 45.7219 25.5468 45.0492 25.4471L43.4813 36.0171Z" fill="url(#paint2_linear_3129_3241)"/>
<path d="M38.1384 36.6761C38.2911 36.6128 38.4452 36.5534 38.6005 36.4978L35.0006 26.4368C34.6808 26.5512 34.3636 26.6735 34.0491 26.8038C33.7347 26.934 33.4238 27.0718 33.1168 27.2171L37.6855 36.8768C37.8346 36.8063 37.9856 36.7394 38.1384 36.6761Z" fill="url(#paint3_linear_3129_3241)"/>
<path d="M45.4003 36.4978C45.5557 36.5534 45.7098 36.6128 45.8625 36.6761C46.0153 36.7394 46.1663 36.8063 46.3153 36.8768L50.8841 27.2171C50.577 27.0718 50.2662 26.934 49.9518 26.8038C49.6373 26.6735 49.32 26.5512 49.0003 26.4368L45.4003 36.4978Z" fill="url(#paint4_linear_3129_3241)"/>
<path d="M35.9886 37.8939C36.2539 37.6972 36.5288 37.5135 36.8121 37.3437L31.3185 28.1783C30.7352 28.5279 30.1694 28.9059 29.6231 29.3111L35.9886 37.8939Z" fill="url(#paint5_linear_3129_3241)"/>
<path d="M47.1888 37.3437C47.4721 37.5135 47.747 37.6972 48.0123 37.8939L54.3778 29.3111C53.8315 28.906 53.2657 28.5279 52.6823 28.1783L47.1888 37.3437Z" fill="url(#paint6_linear_3129_3241)"/>
<path d="M34.8643 38.8638C34.9812 38.7469 35.1008 38.633 35.223 38.5222L28.0469 30.6046C27.7953 30.8327 27.549 31.0672 27.3083 31.3078C27.0677 31.5485 26.8332 31.7948 26.6051 32.0464L34.5227 39.2225C34.6335 39.1003 34.7474 38.9807 34.8643 38.8638Z" fill="url(#paint7_linear_3129_3241)"/>
<path d="M48.7779 38.5222C48.9001 38.633 49.0197 38.7469 49.1366 38.8638C49.2535 38.9807 49.3674 39.1003 49.4782 39.2226L57.3958 32.0464C57.1677 31.7948 56.9332 31.5485 56.6926 31.3078C56.4519 31.0672 56.2056 30.8327 55.954 30.6046L48.7779 38.5222Z" fill="url(#paint8_linear_3129_3241)"/>
<path d="M33.3442 40.8116C33.514 40.5283 33.6976 40.2534 33.8944 39.9881L25.3116 33.6226C24.9064 34.1689 24.5284 34.7347 24.1787 35.318L33.3442 40.8116Z" fill="url(#paint9_linear_3129_3241)"/>
<path d="M50.1065 39.9881C50.3032 40.2534 50.4869 40.5283 50.6567 40.8116L59.8222 35.318C59.4725 34.7347 59.0945 34.1689 58.6893 33.6226L50.1065 39.9881Z" fill="url(#paint10_linear_3129_3241)"/>
<path d="M32.6766 42.1379C32.7399 41.9851 32.8068 41.8341 32.8773 41.6851L23.2175 37.1163C23.0723 37.4233 22.9345 37.7342 22.8043 38.0486C22.674 38.3631 22.5517 38.6804 22.4372 39.0001L32.4983 42.6001C32.5539 42.4447 32.6133 42.2906 32.6766 42.1379Z" fill="url(#paint11_linear_3129_3241)"/>
<path d="M51.1236 41.6851C51.1941 41.8341 51.2611 41.9851 51.3243 42.1379C51.3876 42.2906 51.447 42.4447 51.5026 42.6001L61.5637 39.0001C61.4492 38.6804 61.3269 38.3631 61.1966 38.0487C61.0664 37.7342 60.9285 37.4233 60.7833 37.1163L51.1236 41.6851Z" fill="url(#paint12_linear_3129_3241)"/>
<path d="M32.0176 44.5191C32.0661 44.1924 32.1306 43.8682 32.2108 43.5478L21.8453 40.9514C21.6801 41.6111 21.5473 42.2785 21.4475 42.9512L32.0176 44.5191Z" fill="url(#paint13_linear_3129_3241)"/>
<path d="M51.7901 43.5478C51.8703 43.8682 51.9348 44.1924 51.9833 44.5191L62.5533 42.9512C62.4535 42.2785 62.3208 41.6111 62.1555 40.9514L51.7901 43.5478Z" fill="url(#paint14_linear_3129_3241)"/>
<path d="M31.9084 46C31.9084 45.8346 31.9125 45.6695 31.9205 45.5048L21.2477 44.9805C21.231 45.3197 21.2227 45.6596 21.2227 46C21.2227 48.7285 21.7601 51.4304 22.8043 53.9512C23.8485 56.4721 25.3789 58.7627 27.3083 60.6921C29.2377 62.6214 31.5283 64.1519 34.0491 65.1961C36.57 66.2403 39.2719 66.7777 42.0004 66.7777C44.729 66.7777 47.4309 66.2403 49.9518 65.1961C52.4726 64.1519 54.7632 62.6214 56.6926 60.6921C58.6219 58.7627 60.1524 56.4721 61.1966 53.9512C62.2408 51.4304 62.7782 48.7285 62.7782 46C62.7782 45.6596 62.7699 45.3197 62.7532 44.9805L52.0803 45.5048C52.0884 45.6695 52.0925 45.8347 52.0925 46C52.0925 47.3253 51.8315 48.6376 51.3243 49.862C50.8171 51.0864 50.0738 52.199 49.1366 53.1361C48.1995 54.0733 47.0869 54.8166 45.8625 55.3238C44.6381 55.831 43.3257 56.092 42.0004 56.092C40.6751 56.092 39.3628 55.831 38.1384 55.3238C36.9139 54.8166 35.8014 54.0733 34.8643 53.1361C33.9271 52.199 33.1838 51.0864 32.6766 49.862C32.1694 48.6376 31.9084 47.3253 31.9084 46Z" fill="url(#paint15_linear_3129_3241)"/>
<path d="M42.0017 35.9076C41.8364 35.9076 41.6713 35.9117 41.5065 35.9198L41.3074 31.8667C41.7678 31.6682 42.2397 31.4914 42.722 31.3379L42.4969 35.9198C42.3321 35.9117 42.167 35.9076 42.0017 35.9076Z" fill="#5165E1"/>
<path d="M44.2356 30.94L43.4825 36.0169C43.8093 36.0654 44.1335 36.1298 44.4539 36.2101L45.8358 30.6933C45.2936 30.7479 44.7597 30.8307 44.2356 30.94Z" fill="#5165E1"/>
<path d="M47.5062 30.6157L45.4016 36.4976C45.5569 36.5532 45.7111 36.6126 45.8637 36.6759C46.0165 36.7391 46.1675 36.8061 46.3166 36.8766L49.2269 30.7233C48.6622 30.6562 48.088 30.6198 47.5062 30.6157Z" fill="#5165E1"/>
<path d="M50.9722 31.0334L47.1901 37.3435C47.4734 37.5133 47.7482 37.6969 48.0136 37.8937L52.7118 31.5588C52.1468 31.3507 51.5662 31.1748 50.9722 31.0334Z" fill="#5165E1"/>
<path d="M54.4132 32.3057L48.7791 38.522C48.9014 38.6328 49.021 38.7467 49.1379 38.8636C49.2548 38.9804 49.3686 39.1001 49.4794 39.2223L56.0425 33.2738C55.5214 32.9191 54.9774 32.5955 54.4132 32.3057Z" fill="#5165E1"/>
<path d="M57.5657 34.4567L50.1077 39.9879C50.3045 40.2532 50.4881 40.528 50.658 40.8114L58.9493 35.8417C58.5178 35.3513 58.0556 34.8886 57.5657 34.4567Z" fill="#5165E1"/>
<path d="M60.1608 37.4111L51.1248 41.6848C51.1954 41.8339 51.2623 41.9849 51.3255 42.1376C51.3888 42.2904 51.4483 42.4445 51.5039 42.5998L61.1699 39.1413C60.8705 38.5412 60.5331 37.9634 60.1608 37.4111Z" fill="#5165E1"/>
<path d="M61.9498 41.003L51.7913 43.5475C51.8716 43.868 51.9361 44.1922 51.9846 44.5189L62.4796 42.9621C62.3455 42.2923 62.1679 41.6383 61.9498 41.003Z" fill="#5165E1"/>
<path d="M62.7462 44.9806L52.0816 45.5045C52.0897 45.6693 52.0938 45.8344 52.0938 45.9997C52.0938 47.325 51.8327 48.6374 51.3255 49.8618C50.8184 51.0862 50.075 52.1988 49.1379 53.1359C48.2007 54.073 47.0882 54.8164 45.8637 55.3236C44.6393 55.8308 43.327 56.0918 42.0017 56.0918C40.6764 56.0918 39.364 55.8308 38.1396 55.3236C36.9152 54.8164 35.8026 54.073 34.8655 53.1359C33.9284 52.1988 33.185 51.0862 32.6778 49.8618C32.4772 49.3774 32.3151 48.8793 32.1924 48.372C33.3332 55.7422 39.7053 61.3841 47.395 61.3841C55.8916 61.3841 62.7794 54.4963 62.7794 45.9997C62.7794 45.6573 62.7683 45.3175 62.7462 44.9806Z" fill="#5165E1"/>
<path d="M32.1924 43.6276C32.1988 43.6009 32.2054 43.5742 32.2121 43.5475L32.2053 43.5458C32.2009 43.5731 32.1966 43.6003 32.1924 43.6276Z" fill="#5165E1"/>
<path d="M32.396 42.5628L32.4996 42.5998C32.5552 42.4445 32.6146 42.2904 32.6778 42.1376C32.7411 41.9849 32.8081 41.8339 32.8786 41.6848L32.6552 41.5791C32.5583 41.9027 32.4718 42.2306 32.396 42.5628Z" fill="#5165E1"/>
<path d="M32.9864 40.5961L33.3455 40.8114C33.5153 40.528 33.6989 40.2532 33.8957 39.9879L33.3937 39.6155C33.247 39.9366 33.1111 40.2637 32.9864 40.5961Z" fill="#5165E1"/>
<path d="M33.8818 38.6402L34.524 39.2223C34.6347 39.1001 34.7486 38.9804 34.8655 38.8635C34.9824 38.7467 35.1021 38.6328 35.2243 38.522L34.4559 37.6742C34.2532 37.9885 34.0616 38.3107 33.8818 38.6402Z" fill="#5165E1"/>
<path d="M35.1214 36.7227L35.9899 37.8937C36.2552 37.6969 36.53 37.5133 36.8134 37.3435L35.8839 35.7929C35.618 36.0926 35.3636 36.4027 35.1214 36.7227Z" fill="#5165E1"/>
<path d="M36.749 34.8938L37.6868 36.8766C37.8359 36.8061 37.9869 36.7391 38.1396 36.6759C38.2924 36.6126 38.4465 36.5532 38.6018 36.4976L37.7213 34.0367C37.3852 34.3088 37.0608 34.5948 36.749 34.8938Z" fill="#5165E1"/>
<path d="M38.8044 33.2353L39.5495 36.2101C39.87 36.1298 40.1941 36.0654 40.5209 36.0169L40.0001 32.5059C39.5898 32.7312 39.1908 32.9747 38.8044 33.2353Z" fill="#5165E1"/>
<path d="M89.8 32.54V47H87.1V40.68H80.31V47H77.61V32.54H80.31V38.76H87.1V32.54H89.8ZM98.9277 40.69C98.9277 40.37 98.881 40.07 98.7877 39.79C98.701 39.5033 98.5677 39.2533 98.3877 39.04C98.2077 38.8267 97.9777 38.66 97.6977 38.54C97.4243 38.4133 97.1043 38.35 96.7377 38.35C96.0243 38.35 95.461 38.5533 95.0477 38.96C94.641 39.3667 94.381 39.9433 94.2677 40.69H98.9277ZM94.2177 42.18C94.2577 42.7067 94.351 43.1633 94.4977 43.55C94.6443 43.93 94.8377 44.2467 95.0777 44.5C95.3177 44.7467 95.601 44.9333 95.9277 45.06C96.261 45.18 96.6277 45.24 97.0277 45.24C97.4277 45.24 97.771 45.1933 98.0577 45.1C98.351 45.0067 98.6043 44.9033 98.8177 44.79C99.0377 44.6767 99.2277 44.5733 99.3877 44.48C99.5543 44.3867 99.7143 44.34 99.8677 44.34C100.074 44.34 100.228 44.4167 100.328 44.57L101.038 45.47C100.764 45.79 100.458 46.06 100.118 46.28C99.7777 46.4933 99.421 46.6667 99.0477 46.8C98.681 46.9267 98.3043 47.0167 97.9177 47.07C97.5377 47.1233 97.1677 47.15 96.8077 47.15C96.0943 47.15 95.431 47.0333 94.8177 46.8C94.2043 46.56 93.671 46.21 93.2177 45.75C92.7643 45.2833 92.4077 44.71 92.1477 44.03C91.8877 43.3433 91.7577 42.55 91.7577 41.65C91.7577 40.95 91.871 40.2933 92.0977 39.68C92.3243 39.06 92.6477 38.5233 93.0677 38.07C93.4943 37.61 94.011 37.2467 94.6177 36.98C95.231 36.7133 95.921 36.58 96.6877 36.58C97.3343 36.58 97.931 36.6833 98.4777 36.89C99.0243 37.0967 99.4943 37.4 99.8877 37.8C100.281 38.1933 100.588 38.68 100.808 39.26C101.034 39.8333 101.148 40.49 101.148 41.23C101.148 41.6033 101.108 41.8567 101.028 41.99C100.948 42.1167 100.794 42.18 100.568 42.18H94.2177ZM105.501 32.14V47H103.031V32.14H105.501ZM110.432 44.34C110.712 44.68 111.016 44.92 111.342 45.06C111.676 45.2 112.036 45.27 112.422 45.27C112.796 45.27 113.132 45.2 113.432 45.06C113.732 44.92 113.986 44.7067 114.192 44.42C114.406 44.1333 114.569 43.7733 114.682 43.34C114.796 42.9 114.852 42.3833 114.852 41.79C114.852 41.19 114.802 40.6833 114.702 40.27C114.609 39.85 114.472 39.51 114.292 39.25C114.112 38.99 113.892 38.8 113.632 38.68C113.379 38.56 113.089 38.5 112.762 38.5C112.249 38.5 111.812 38.61 111.452 38.83C111.092 39.0433 110.752 39.3467 110.432 39.74V44.34ZM110.302 38.14C110.722 37.6667 111.199 37.2833 111.732 36.99C112.266 36.6967 112.892 36.55 113.612 36.55C114.172 36.55 114.682 36.6667 115.142 36.9C115.609 37.1333 116.009 37.4733 116.342 37.92C116.682 38.36 116.942 38.9067 117.122 39.56C117.309 40.2067 117.402 40.95 117.402 41.79C117.402 42.5567 117.299 43.2667 117.092 43.92C116.886 44.5733 116.589 45.14 116.202 45.62C115.822 46.1 115.359 46.4767 114.812 46.75C114.272 47.0167 113.666 47.15 112.992 47.15C112.419 47.15 111.929 47.0633 111.522 46.89C111.116 46.71 110.752 46.4633 110.432 46.15V50.35H107.962V36.74H109.472C109.792 36.74 110.002 36.89 110.102 37.19L110.302 38.14ZM132.266 39.77C132.266 40.83 132.09 41.8033 131.736 42.69C131.383 43.5767 130.886 44.34 130.246 44.98C129.606 45.62 128.836 46.1167 127.936 46.47C127.036 46.8233 126.036 47 124.936 47H119.426V32.54H124.936C126.036 32.54 127.036 32.72 127.936 33.08C128.836 33.4333 129.606 33.93 130.246 34.57C130.886 35.2033 131.383 35.9633 131.736 36.85C132.09 37.7367 132.266 38.71 132.266 39.77ZM129.506 39.77C129.506 38.9767 129.4 38.2667 129.186 37.64C128.98 37.0067 128.676 36.4733 128.276 36.04C127.883 35.6 127.403 35.2633 126.836 35.03C126.276 34.7967 125.643 34.68 124.936 34.68H122.126V44.86H124.936C125.643 44.86 126.276 44.7433 126.836 44.51C127.403 44.2767 127.883 43.9433 128.276 43.51C128.676 43.07 128.98 42.5367 129.186 41.91C129.4 41.2767 129.506 40.5633 129.506 39.77ZM140.725 40.69C140.725 40.37 140.678 40.07 140.585 39.79C140.498 39.5033 140.365 39.2533 140.185 39.04C140.005 38.8267 139.775 38.66 139.495 38.54C139.221 38.4133 138.901 38.35 138.535 38.35C137.821 38.35 137.258 38.5533 136.845 38.96C136.438 39.3667 136.178 39.9433 136.065 40.69H140.725ZM136.015 42.18C136.055 42.7067 136.148 43.1633 136.295 43.55C136.441 43.93 136.635 44.2467 136.875 44.5C137.115 44.7467 137.398 44.9333 137.725 45.06C138.058 45.18 138.425 45.24 138.825 45.24C139.225 45.24 139.568 45.1933 139.855 45.1C140.148 45.0067 140.401 44.9033 140.615 44.79C140.835 44.6767 141.025 44.5733 141.185 44.48C141.351 44.3867 141.511 44.34 141.665 44.34C141.871 44.34 142.025 44.4167 142.125 44.57L142.835 45.47C142.561 45.79 142.255 46.06 141.915 46.28C141.575 46.4933 141.218 46.6667 140.845 46.8C140.478 46.9267 140.101 47.0167 139.715 47.07C139.335 47.1233 138.965 47.15 138.605 47.15C137.891 47.15 137.228 47.0333 136.615 46.8C136.001 46.56 135.468 46.21 135.015 45.75C134.561 45.2833 134.205 44.71 133.945 44.03C133.685 43.3433 133.555 42.55 133.555 41.65C133.555 40.95 133.668 40.2933 133.895 39.68C134.121 39.06 134.445 38.5233 134.865 38.07C135.291 37.61 135.808 37.2467 136.415 36.98C137.028 36.7133 137.718 36.58 138.485 36.58C139.131 36.58 139.728 36.6833 140.275 36.89C140.821 37.0967 141.291 37.4 141.685 37.8C142.078 38.1933 142.385 38.68 142.605 39.26C142.831 39.8333 142.945 40.49 142.945 41.23C142.945 41.6033 142.905 41.8567 142.825 41.99C142.745 42.1167 142.591 42.18 142.365 42.18H136.015ZM151.058 38.74C150.991 38.8467 150.921 38.9233 150.848 38.97C150.775 39.01 150.681 39.03 150.568 39.03C150.448 39.03 150.318 38.9967 150.178 38.93C150.045 38.8633 149.888 38.79 149.708 38.71C149.528 38.6233 149.321 38.5467 149.088 38.48C148.861 38.4133 148.591 38.38 148.278 38.38C147.791 38.38 147.408 38.4833 147.128 38.69C146.855 38.8967 146.718 39.1667 146.718 39.5C146.718 39.72 146.788 39.9067 146.928 40.06C147.075 40.2067 147.265 40.3367 147.498 40.45C147.738 40.5633 148.008 40.6667 148.308 40.76C148.608 40.8467 148.911 40.9433 149.218 41.05C149.531 41.1567 149.838 41.28 150.138 41.42C150.438 41.5533 150.705 41.7267 150.938 41.94C151.178 42.1467 151.368 42.3967 151.508 42.69C151.655 42.9833 151.728 43.3367 151.728 43.75C151.728 44.2433 151.638 44.7 151.458 45.12C151.285 45.5333 151.025 45.8933 150.678 46.2C150.331 46.5 149.901 46.7367 149.388 46.91C148.881 47.0767 148.295 47.16 147.628 47.16C147.275 47.16 146.928 47.1267 146.588 47.06C146.255 47 145.931 46.9133 145.618 46.8C145.311 46.6867 145.025 46.5533 144.758 46.4C144.498 46.2467 144.268 46.08 144.068 45.9L144.638 44.96C144.711 44.8467 144.798 44.76 144.898 44.7C144.998 44.64 145.125 44.61 145.278 44.61C145.431 44.61 145.575 44.6533 145.708 44.74C145.848 44.8267 146.008 44.92 146.188 45.02C146.368 45.12 146.578 45.2133 146.818 45.3C147.065 45.3867 147.375 45.43 147.748 45.43C148.041 45.43 148.291 45.3967 148.498 45.33C148.711 45.2567 148.885 45.1633 149.018 45.05C149.158 44.9367 149.258 44.8067 149.318 44.66C149.385 44.5067 149.418 44.35 149.418 44.19C149.418 43.95 149.345 43.7533 149.198 43.6C149.058 43.4467 148.868 43.3133 148.628 43.2C148.395 43.0867 148.125 42.9867 147.818 42.9C147.518 42.8067 147.208 42.7067 146.888 42.6C146.575 42.4933 146.265 42.37 145.958 42.23C145.658 42.0833 145.388 41.9 145.148 41.68C144.915 41.46 144.725 41.19 144.578 40.87C144.438 40.55 144.368 40.1633 144.368 39.71C144.368 39.29 144.451 38.89 144.618 38.51C144.785 38.13 145.028 37.8 145.348 37.52C145.675 37.2333 146.078 37.0067 146.558 36.84C147.045 36.6667 147.605 36.58 148.238 36.58C148.945 36.58 149.588 36.6967 150.168 36.93C150.748 37.1633 151.231 37.47 151.618 37.85L151.058 38.74ZM156.057 32.14V40.65H156.517C156.684 40.65 156.814 40.63 156.907 40.59C157.007 40.5433 157.107 40.4533 157.207 40.32L159.757 37.17C159.864 37.03 159.981 36.9233 160.107 36.85C160.241 36.7767 160.411 36.74 160.617 36.74H162.877L159.687 40.55C159.461 40.85 159.214 41.08 158.947 41.24C159.087 41.34 159.211 41.4567 159.317 41.59C159.431 41.7233 159.537 41.8667 159.637 42.02L163.057 47H160.827C160.634 47 160.467 46.97 160.327 46.91C160.187 46.8433 160.071 46.7267 159.977 46.56L157.357 42.67C157.264 42.5167 157.167 42.4167 157.067 42.37C156.967 42.3233 156.817 42.3 156.617 42.3H156.057V47H153.587V32.14H156.057Z" fill="#F9FAFA"/>
<path d="M81.9798 62.295C82.0531 62.295 82.1181 62.3233 82.1748 62.38L82.7048 62.955C82.4114 63.3183 82.0498 63.5967 81.6198 63.79C81.1931 63.9833 80.6798 64.08 80.0798 64.08C79.5431 64.08 79.0598 63.9883 78.6298 63.805C78.2031 63.6217 77.8381 63.3667 77.5348 63.04C77.2314 62.7133 76.9981 62.3233 76.8348 61.87C76.6748 61.4167 76.5948 60.9217 76.5948 60.385C76.5948 59.8417 76.6814 59.345 76.8548 58.895C77.0281 58.4417 77.2714 58.0517 77.5848 57.725C77.9014 57.3983 78.2781 57.145 78.7148 56.965C79.1514 56.7817 79.6348 56.69 80.1648 56.69C80.6914 56.69 81.1581 56.7767 81.5648 56.95C81.9748 57.1233 82.3231 57.35 82.6098 57.63L82.1598 58.255C82.1331 58.295 82.0981 58.33 82.0548 58.36C82.0148 58.39 81.9581 58.405 81.8848 58.405C81.8348 58.405 81.7831 58.3917 81.7298 58.365C81.6764 58.335 81.6181 58.3 81.5548 58.26C81.4914 58.2167 81.4181 58.17 81.3348 58.12C81.2514 58.07 81.1548 58.025 81.0448 57.985C80.9348 57.9417 80.8064 57.9067 80.6598 57.88C80.5164 57.85 80.3498 57.835 80.1598 57.835C79.8364 57.835 79.5398 57.8933 79.2698 58.01C79.0031 58.1233 78.7731 58.29 78.5798 58.51C78.3864 58.7267 78.2364 58.9933 78.1298 59.31C78.0231 59.6233 77.9698 59.9817 77.9698 60.385C77.9698 60.7917 78.0264 61.1533 78.1398 61.47C78.2564 61.7867 78.4131 62.0533 78.6098 62.27C78.8064 62.4867 79.0381 62.6533 79.3048 62.77C79.5714 62.8833 79.8581 62.94 80.1648 62.94C80.3481 62.94 80.5131 62.93 80.6598 62.91C80.8098 62.89 80.9464 62.8583 81.0698 62.815C81.1964 62.7717 81.3148 62.7167 81.4248 62.65C81.5381 62.58 81.6498 62.495 81.7598 62.395C81.7931 62.365 81.8281 62.3417 81.8648 62.325C81.9014 62.305 81.9398 62.295 81.9798 62.295ZM88.4611 62.89V64H84.2261V56.77H85.5711V62.89H88.4611ZM91.3714 64H90.0214V56.77H91.3714V64ZM94.9402 57.84V59.845H97.4702V60.88H94.9402V62.925H98.1502V64H93.5902V56.77H98.1502V57.84H94.9402ZM106.037 56.77V64H105.347C105.24 64 105.15 63.9833 105.077 63.95C105.007 63.9133 104.939 63.8533 104.872 63.77L101.097 58.95C101.117 59.17 101.127 59.3733 101.127 59.56V64H99.9421V56.77H100.647C100.704 56.77 100.752 56.7733 100.792 56.78C100.835 56.7833 100.872 56.7933 100.902 56.81C100.935 56.8233 100.967 56.845 100.997 56.875C101.027 56.9017 101.06 56.9383 101.097 56.985L104.887 61.825C104.877 61.7083 104.869 61.5933 104.862 61.48C104.855 61.3667 104.852 61.2617 104.852 61.165V56.77H106.037ZM113.297 57.875H111.117V64H109.772V57.875H107.592V56.77H113.297V57.875ZM116.193 57.84V59.845H118.723V60.88H116.193V62.925H119.403V64H114.843V56.77H119.403V57.84H116.193Z" fill="#8996EB"/>
<defs>
<linearGradient id="paint0_linear_3129_3241" x1="15.1971" y1="20.4433" x2="60.3888" y2="66.7777" gradientUnits="userSpaceOnUse">
<stop offset="0.0363151" stop-color="#3B53F1"/>
<stop offset="0.524591" stop-color="#6D80FD"/>
<stop offset="1" stop-color="#C9D0FE"/>
</linearGradient>
<linearGradient id="paint1_linear_3129_3241" x1="15.1971" y1="20.4433" x2="60.3888" y2="66.7777" gradientUnits="userSpaceOnUse">
<stop offset="0.0363151" stop-color="#3B53F1"/>
<stop offset="0.524591" stop-color="#6D80FD"/>
<stop offset="1" stop-color="#C9D0FE"/>
</linearGradient>
<linearGradient id="paint2_linear_3129_3241" x1="15.1971" y1="20.4433" x2="60.3888" y2="66.7777" gradientUnits="userSpaceOnUse">
<stop offset="0.0363151" stop-color="#3B53F1"/>
<stop offset="0.524591" stop-color="#6D80FD"/>
<stop offset="1" stop-color="#C9D0FE"/>
</linearGradient>
<linearGradient id="paint3_linear_3129_3241" x1="15.1971" y1="20.4433" x2="60.3888" y2="66.7777" gradientUnits="userSpaceOnUse">
<stop offset="0.0363151" stop-color="#3B53F1"/>
<stop offset="0.524591" stop-color="#6D80FD"/>
<stop offset="1" stop-color="#C9D0FE"/>
</linearGradient>
<linearGradient id="paint4_linear_3129_3241" x1="15.1971" y1="20.4433" x2="60.3888" y2="66.7777" gradientUnits="userSpaceOnUse">
<stop offset="0.0363151" stop-color="#3B53F1"/>
<stop offset="0.524591" stop-color="#6D80FD"/>
<stop offset="1" stop-color="#C9D0FE"/>
</linearGradient>
<linearGradient id="paint5_linear_3129_3241" x1="15.1971" y1="20.4433" x2="60.3888" y2="66.7777" gradientUnits="userSpaceOnUse">
<stop offset="0.0363151" stop-color="#3B53F1"/>
<stop offset="0.524591" stop-color="#6D80FD"/>
<stop offset="1" stop-color="#C9D0FE"/>
</linearGradient>
<linearGradient id="paint6_linear_3129_3241" x1="15.1971" y1="20.4433" x2="60.3888" y2="66.7777" gradientUnits="userSpaceOnUse">
<stop offset="0.0363151" stop-color="#3B53F1"/>
<stop offset="0.524591" stop-color="#6D80FD"/>
<stop offset="1" stop-color="#C9D0FE"/>
</linearGradient>
<linearGradient id="paint7_linear_3129_3241" x1="15.1971" y1="20.4433" x2="60.3888" y2="66.7777" gradientUnits="userSpaceOnUse">
<stop offset="0.0363151" stop-color="#3B53F1"/>
<stop offset="0.524591" stop-color="#6D80FD"/>
<stop offset="1" stop-color="#C9D0FE"/>
</linearGradient>
<linearGradient id="paint8_linear_3129_3241" x1="15.1971" y1="20.4433" x2="60.3888" y2="66.7777" gradientUnits="userSpaceOnUse">
<stop offset="0.0363151" stop-color="#3B53F1"/>
<stop offset="0.524591" stop-color="#6D80FD"/>
<stop offset="1" stop-color="#C9D0FE"/>
</linearGradient>
<linearGradient id="paint9_linear_3129_3241" x1="15.1971" y1="20.4433" x2="60.3888" y2="66.7777" gradientUnits="userSpaceOnUse">
<stop offset="0.0363151" stop-color="#3B53F1"/>
<stop offset="0.524591" stop-color="#6D80FD"/>
<stop offset="1" stop-color="#C9D0FE"/>
</linearGradient>
<linearGradient id="paint10_linear_3129_3241" x1="15.1971" y1="20.4433" x2="60.3888" y2="66.7777" gradientUnits="userSpaceOnUse">
<stop offset="0.0363151" stop-color="#3B53F1"/>
<stop offset="0.524591" stop-color="#6D80FD"/>
<stop offset="1" stop-color="#C9D0FE"/>
</linearGradient>
<linearGradient id="paint11_linear_3129_3241" x1="15.1971" y1="20.4433" x2="60.3888" y2="66.7777" gradientUnits="userSpaceOnUse">
<stop offset="0.0363151" stop-color="#3B53F1"/>
<stop offset="0.524591" stop-color="#6D80FD"/>
<stop offset="1" stop-color="#C9D0FE"/>
</linearGradient>
<linearGradient id="paint12_linear_3129_3241" x1="15.1971" y1="20.4433" x2="60.3888" y2="66.7777" gradientUnits="userSpaceOnUse">
<stop offset="0.0363151" stop-color="#3B53F1"/>
<stop offset="0.524591" stop-color="#6D80FD"/>
<stop offset="1" stop-color="#C9D0FE"/>
</linearGradient>
<linearGradient id="paint13_linear_3129_3241" x1="15.1971" y1="20.4433" x2="60.3888" y2="66.7777" gradientUnits="userSpaceOnUse">
<stop offset="0.0363151" stop-color="#3B53F1"/>
<stop offset="0.524591" stop-color="#6D80FD"/>
<stop offset="1" stop-color="#C9D0FE"/>
</linearGradient>
<linearGradient id="paint14_linear_3129_3241" x1="15.1971" y1="20.4433" x2="60.3888" y2="66.7777" gradientUnits="userSpaceOnUse">
<stop offset="0.0363151" stop-color="#3B53F1"/>
<stop offset="0.524591" stop-color="#6D80FD"/>
<stop offset="1" stop-color="#C9D0FE"/>
</linearGradient>
<linearGradient id="paint15_linear_3129_3241" x1="15.1971" y1="20.4433" x2="60.3888" y2="66.7777" gradientUnits="userSpaceOnUse">
<stop offset="0.0363151" stop-color="#3B53F1"/>
<stop offset="0.524591" stop-color="#6D80FD"/>
<stop offset="1" stop-color="#C9D0FE"/>
</linearGradient>
</defs>
</svg>
