<svg width="157" height="40" viewBox="0 0 157 40" fill="none" xmlns="http://www.w3.org/2000/svg">
<g clip-path="url(#clip0_3139_18691)">
<path d="M19.5498 10.8365C19.6996 10.8291 19.8497 10.8254 20 10.8254C20.1503 10.8254 20.3004 10.8291 20.4502 10.8365L20.9268 1.13387C20.6184 1.11872 20.3094 1.11111 20 1.11111C19.6906 1.11111 19.3816 1.11872 19.0732 1.13387L19.5498 10.8365Z" fill="url(#paint0_linear_3139_18691)"/>
<path d="M17.7707 11.1004C18.062 11.0274 18.3567 10.9688 18.6538 10.9247L17.2284 1.31556C16.6169 1.40628 16.0101 1.52697 15.4104 1.67719L17.7707 11.1004Z" fill="url(#paint1_linear_3139_18691)"/>
<path d="M21.3462 10.9247C21.6432 10.9688 21.9379 11.0274 22.2292 11.1004L24.5896 1.67719C23.9899 1.52697 23.3831 1.40628 22.7716 1.31556L21.3462 10.9247Z" fill="url(#paint2_linear_3139_18691)"/>
<path d="M16.489 11.5238C16.6278 11.4663 16.768 11.4122 16.9092 11.3617L13.6365 2.21528C13.3458 2.3193 13.0574 2.43054 12.7715 2.54895C12.4856 2.66735 12.2031 2.79264 11.9239 2.92465L16.0773 11.7063C16.2129 11.6421 16.3501 11.5813 16.489 11.5238Z" fill="url(#paint3_linear_3139_18691)"/>
<path d="M23.0908 11.3617C23.232 11.4122 23.3721 11.4663 23.511 11.5238C23.6498 11.5813 23.7871 11.6421 23.9226 11.7063L28.076 2.92465C27.7969 2.79264 27.5143 2.66735 27.2285 2.54895C26.9426 2.43054 26.6542 2.3193 26.3635 2.21528L23.0908 11.3617Z" fill="url(#paint4_linear_3139_18691)"/>
<path d="M14.5347 12.6309C14.7759 12.452 15.0257 12.2851 15.2833 12.1307L10.2892 3.79846C9.75884 4.11631 9.24447 4.46001 8.74786 4.8283L14.5347 12.6309Z" fill="url(#paint5_linear_3139_18691)"/>
<path d="M24.7167 12.1307C24.9742 12.2851 25.2241 12.452 25.4653 12.6309L31.2521 4.82831C30.7555 4.46001 30.2411 4.11632 29.7108 3.79847L24.7167 12.1307Z" fill="url(#paint6_linear_3139_18691)"/>
<path d="M13.5126 13.5126C13.6188 13.4063 13.7276 13.3028 13.8387 13.2021L7.31495 6.00426C7.08619 6.21162 6.86229 6.42477 6.64352 6.64355C6.42474 6.86232 6.21159 7.08622 6.00423 7.31498L13.202 13.8387C13.3027 13.7276 13.4063 13.6188 13.5126 13.5126Z" fill="url(#paint7_linear_3139_18691)"/>
<path d="M26.1613 13.2021C26.2724 13.3028 26.3812 13.4063 26.4874 13.5126C26.5937 13.6188 26.6972 13.7276 26.7979 13.8387L33.9957 7.31498C33.7884 7.08622 33.5752 6.86232 33.3564 6.64355C33.1377 6.42477 32.9138 6.21162 32.685 6.00426L26.1613 13.2021Z" fill="url(#paint8_linear_3139_18691)"/>
<path d="M12.1307 15.2833C12.285 15.0258 12.452 14.7759 12.6309 14.5347L4.82828 8.74789C4.45998 9.2445 4.11629 9.75887 3.79844 10.2892L12.1307 15.2833Z" fill="url(#paint9_linear_3139_18691)"/>
<path d="M27.3691 14.5347C27.548 14.7759 27.7149 15.0258 27.8693 15.2833L36.2015 10.2892C35.8837 9.75887 35.54 9.2445 35.1717 8.74789L27.3691 14.5347Z" fill="url(#paint10_linear_3139_18691)"/>
<path d="M11.5237 16.489C11.5813 16.3502 11.6421 16.2129 11.7062 16.0774L2.92462 11.924C2.79261 12.2031 2.66732 12.4857 2.54892 12.7715C2.43051 13.0574 2.31927 13.3458 2.21525 13.6365L11.3617 16.9092C11.4122 16.768 11.4662 16.6279 11.5237 16.489Z" fill="url(#paint11_linear_3139_18691)"/>
<path d="M28.2937 16.0774C28.3579 16.2129 28.4187 16.3502 28.4762 16.489C28.5337 16.6279 28.5878 16.768 28.6383 16.9092L37.7847 13.6366C37.6807 13.3458 37.5695 13.0574 37.451 12.7716C37.3326 12.4857 37.2073 12.2031 37.0753 11.924L28.2937 16.0774Z" fill="url(#paint12_linear_3139_18691)"/>
<path d="M10.9247 18.6538C10.9687 18.3568 11.0274 18.062 11.1003 17.7707L1.67716 15.4104C1.52694 16.0101 1.40625 16.6168 1.31553 17.2284L10.9247 18.6538Z" fill="url(#paint13_linear_3139_18691)"/>
<path d="M28.8996 17.7707C28.9726 18.062 29.0312 18.3568 29.0753 18.6538L38.6844 17.2284C38.5937 16.6169 38.473 16.0101 38.3228 15.4104L28.8996 17.7707Z" fill="url(#paint14_linear_3139_18691)"/>
<path d="M10.8254 20C10.8254 19.8497 10.8291 19.6996 10.8364 19.5498L1.13384 19.0732C1.11869 19.3816 1.11108 19.6906 1.11108 20C1.11108 22.4805 1.59966 24.9368 2.54892 27.2285C3.49817 29.5202 4.88952 31.6025 6.64352 33.3565C8.3975 35.1105 10.4798 36.5018 12.7715 37.4511C15.0632 38.4003 17.5194 38.8889 20 38.8889C22.4805 38.8889 24.9367 38.4003 27.2285 37.4511C29.5201 36.5018 31.6025 35.1105 33.3564 33.3565C35.1104 31.6025 36.5018 29.5202 37.451 27.2285C38.4003 24.9368 38.8889 22.4805 38.8889 20C38.8889 19.6906 38.8813 19.3816 38.8661 19.0732L29.1635 19.5498C29.1709 19.6996 29.1746 19.8497 29.1746 20C29.1746 21.2048 28.9373 22.3979 28.4762 23.511C28.0151 24.6241 27.3394 25.6355 26.4874 26.4874C25.6355 27.3394 24.6241 28.0152 23.511 28.4763C22.3978 28.9373 21.2048 29.1746 20 29.1746C18.7952 29.1746 17.6021 28.9373 16.489 28.4763C15.3759 28.0152 14.3645 27.3394 13.5126 26.4874C12.6606 25.6355 11.9848 24.6241 11.5237 23.511C11.0627 22.3979 10.8254 21.2048 10.8254 20Z" fill="url(#paint15_linear_3139_18691)"/>
<path d="M20.0013 10.8251C19.851 10.8251 19.7009 10.8288 19.5511 10.8362L19.3701 7.15153C19.7886 6.97104 20.2177 6.81036 20.6561 6.67075L20.4515 10.8362C20.3017 10.8288 20.1516 10.8251 20.0013 10.8251Z" fill="#2E3DA3"/>
<path d="M22.0321 6.30909L21.3475 10.9244C21.6446 10.9685 21.9393 11.0271 22.2305 11.1001L23.4868 6.08481C22.9939 6.13443 22.5086 6.20965 22.0321 6.30909Z" fill="#2E3DA3"/>
<path d="M25.0054 6.01425L23.0921 11.3614C23.2333 11.4119 23.3734 11.466 23.5123 11.5235C23.6511 11.581 23.7884 11.6418 23.9239 11.706L26.5697 6.11201C26.0563 6.05106 25.5343 6.01799 25.0054 6.01425Z" fill="#2E3DA3"/>
<path d="M28.1563 6.39392L24.718 12.1304C24.9756 12.2848 25.2254 12.4517 25.4666 12.6306L29.7378 6.8716C29.2241 6.68241 28.6963 6.52249 28.1563 6.39392Z" fill="#2E3DA3"/>
<path d="M31.2845 7.55063L26.1626 13.2018C26.2737 13.3025 26.3824 13.406 26.4887 13.5123C26.595 13.6185 26.6985 13.7273 26.7993 13.8384L32.7657 8.43073C32.292 8.10823 31.7974 7.81403 31.2845 7.55063Z" fill="#2E3DA3"/>
<path d="M34.1504 9.50601L27.3704 14.5344C27.5493 14.7756 27.7162 15.0254 27.8706 15.283L35.4082 10.7651C35.016 10.3194 34.5958 9.89873 34.1504 9.50601Z" fill="#2E3DA3"/>
<path d="M36.5096 12.1919L28.295 16.077C28.3592 16.2126 28.42 16.3499 28.4775 16.4887C28.5351 16.6276 28.5891 16.7677 28.6396 16.9089L37.4269 13.7647C37.1548 13.2192 36.848 12.694 36.5096 12.1919Z" fill="#2E3DA3"/>
<path d="M38.1359 15.4572L28.901 17.7704C28.9739 18.0618 29.0326 18.3565 29.0766 18.6535L38.6176 17.2382C38.4957 16.6293 38.3342 16.0348 38.1359 15.4572Z" fill="#2E3DA3"/>
<path d="M38.86 19.0732L29.1649 19.5495C29.1722 19.6993 29.1759 19.8494 29.1759 19.9997C29.1759 21.2045 28.9386 22.3976 28.4775 23.5107C28.0165 24.6238 27.3407 25.6352 26.4887 26.4871C25.6367 27.3391 24.6254 28.0149 23.5123 28.476C22.3992 28.937 21.2061 29.1743 20.0013 29.1743C18.7965 29.1743 17.6034 28.937 16.4903 28.476C15.3772 28.0149 14.3658 27.3391 13.5139 26.4871C12.6619 25.6352 11.9861 24.6238 11.5251 23.5107C11.3426 23.0703 11.1953 22.6175 11.0838 22.1564C12.1208 28.8565 17.9136 33.9855 24.9043 33.9855C32.6285 33.9855 38.8902 27.7239 38.8902 19.9997C38.8902 19.6884 38.88 19.3795 38.86 19.0732Z" fill="#2E3DA3"/>
<path d="M11.0837 17.8432C11.0896 17.8189 11.0956 17.7947 11.1017 17.7704L11.0955 17.7689C11.0915 17.7937 11.0876 17.8184 11.0837 17.8432Z" fill="#2E3DA3"/>
<path d="M11.2689 16.8752L11.363 16.9089C11.4135 16.7677 11.4676 16.6276 11.5251 16.4887C11.5826 16.3499 11.6434 16.2126 11.7076 16.077L11.5045 15.981C11.4164 16.2751 11.3377 16.5733 11.2689 16.8752Z" fill="#2E3DA3"/>
<path d="M11.8055 15.0873L12.132 15.283C12.2864 15.0254 12.4533 14.7756 12.6322 14.5344L12.1758 14.1959C12.0425 14.4878 11.919 14.7851 11.8055 15.0873Z" fill="#2E3DA3"/>
<path d="M12.6196 13.3093L13.2034 13.8384C13.3041 13.7273 13.4076 13.6185 13.5139 13.5123C13.6201 13.406 13.7289 13.3025 13.84 13.2018L13.1415 12.431C12.9572 12.7168 12.7831 13.0097 12.6196 13.3093Z" fill="#2E3DA3"/>
<path d="M13.7464 11.566L14.536 12.6306C14.7772 12.4517 15.027 12.2848 15.2846 12.1304L14.4397 10.7207C14.1979 10.9932 13.9666 11.2752 13.7464 11.566Z" fill="#2E3DA3"/>
<path d="M15.2261 9.90339L16.0786 11.706C16.2142 11.6418 16.3515 11.581 16.4903 11.5235C16.6292 11.466 16.7693 11.4119 16.9105 11.3614L16.11 9.12424C15.8045 9.3716 15.5096 9.6316 15.2261 9.90339Z" fill="#2E3DA3"/>
<path d="M17.0946 8.39572L17.772 11.1001C18.0634 11.0271 18.3581 10.9685 18.6551 10.9244L18.1816 7.73259C17.8086 7.93743 17.446 8.15881 17.0946 8.39572Z" fill="#2E3DA3"/>
<path d="M68.56 11.648V29H65.32V21.416H57.172V29H53.932V11.648H57.172V19.112H65.32V11.648H68.56ZM79.5132 21.428C79.5132 21.044 79.4572 20.684 79.3452 20.348C79.2412 20.004 79.0812 19.704 78.8652 19.448C78.6492 19.192 78.3732 18.992 78.0372 18.848C77.7092 18.696 77.3252 18.62 76.8852 18.62C76.0292 18.62 75.3532 18.864 74.8572 19.352C74.3692 19.84 74.0572 20.532 73.9212 21.428H79.5132ZM73.8612 23.216C73.9092 23.848 74.0212 24.396 74.1972 24.86C74.3732 25.316 74.6052 25.696 74.8932 26C75.1812 26.296 75.5212 26.52 75.9132 26.672C76.3132 26.816 76.7532 26.888 77.2332 26.888C77.7132 26.888 78.1252 26.832 78.4692 26.72C78.8212 26.608 79.1252 26.484 79.3812 26.348C79.6452 26.212 79.8732 26.088 80.0652 25.976C80.2652 25.864 80.4572 25.808 80.6412 25.808C80.8892 25.808 81.0732 25.9 81.1932 26.084L82.0452 27.164C81.7172 27.548 81.3492 27.872 80.9412 28.136C80.5332 28.392 80.1052 28.6 79.6572 28.76C79.2172 28.912 78.7652 29.02 78.3012 29.084C77.8452 29.148 77.4012 29.18 76.9692 29.18C76.1132 29.18 75.3172 29.04 74.5812 28.76C73.8452 28.472 73.2052 28.052 72.6612 27.5C72.1172 26.94 71.6892 26.252 71.3772 25.436C71.0652 24.612 70.9092 23.66 70.9092 22.58C70.9092 21.74 71.0452 20.952 71.3172 20.216C71.5892 19.472 71.9772 18.828 72.4812 18.284C72.9932 17.732 73.6132 17.296 74.3412 16.976C75.0772 16.656 75.9052 16.496 76.8252 16.496C77.6012 16.496 78.3172 16.62 78.9732 16.868C79.6292 17.116 80.1932 17.48 80.6652 17.96C81.1372 18.432 81.5052 19.016 81.7692 19.712C82.0412 20.4 82.1772 21.188 82.1772 22.076C82.1772 22.524 82.1292 22.828 82.0332 22.988C81.9372 23.14 81.7532 23.216 81.4812 23.216H73.8612ZM87.4015 11.168V29H84.4375V11.168H87.4015ZM93.3186 25.808C93.6546 26.216 94.0186 26.504 94.4106 26.672C94.8106 26.84 95.2426 26.924 95.7066 26.924C96.1546 26.924 96.5586 26.84 96.9186 26.672C97.2786 26.504 97.5826 26.248 97.8306 25.904C98.0866 25.56 98.2826 25.128 98.4186 24.608C98.5546 24.08 98.6226 23.46 98.6226 22.748C98.6226 22.028 98.5626 21.42 98.4426 20.924C98.3306 20.42 98.1666 20.012 97.9506 19.7C97.7346 19.388 97.4706 19.16 97.1586 19.016C96.8546 18.872 96.5066 18.8 96.1146 18.8C95.4986 18.8 94.9746 18.932 94.5426 19.196C94.1106 19.452 93.7026 19.816 93.3186 20.288V25.808ZM93.1626 18.368C93.6666 17.8 94.2386 17.34 94.8786 16.988C95.5186 16.636 96.2706 16.46 97.1346 16.46C97.8066 16.46 98.4186 16.6 98.9706 16.88C99.5306 17.16 100.011 17.568 100.411 18.104C100.819 18.632 101.131 19.288 101.347 20.072C101.571 20.848 101.683 21.74 101.683 22.748C101.683 23.668 101.559 24.52 101.311 25.304C101.063 26.088 100.707 26.768 100.243 27.344C99.7866 27.92 99.2306 28.372 98.5746 28.7C97.9266 29.02 97.1986 29.18 96.3906 29.18C95.7026 29.18 95.1146 29.076 94.6266 28.868C94.1386 28.652 93.7026 28.356 93.3186 27.98V33.02H90.3546V16.688H92.1666C92.5506 16.688 92.8026 16.868 92.9226 17.228L93.1626 18.368ZM119.52 20.324C119.52 21.596 119.308 22.764 118.884 23.828C118.46 24.892 117.864 25.808 117.096 26.576C116.328 27.344 115.404 27.94 114.324 28.364C113.244 28.788 112.044 29 110.724 29H104.112V11.648H110.724C112.044 11.648 113.244 11.864 114.324 12.296C115.404 12.72 116.328 13.316 117.096 14.084C117.864 14.844 118.46 15.756 118.884 16.82C119.308 17.884 119.52 19.052 119.52 20.324ZM116.208 20.324C116.208 19.372 116.08 18.52 115.824 17.768C115.576 17.008 115.212 16.368 114.732 15.848C114.26 15.32 113.684 14.916 113.004 14.636C112.332 14.356 111.572 14.216 110.724 14.216H107.352V26.432H110.724C111.572 26.432 112.332 26.292 113.004 26.012C113.684 25.732 114.26 25.332 114.732 24.812C115.212 24.284 115.576 23.644 115.824 22.892C116.08 22.132 116.208 21.276 116.208 20.324ZM129.669 21.428C129.669 21.044 129.613 20.684 129.501 20.348C129.397 20.004 129.237 19.704 129.021 19.448C128.805 19.192 128.529 18.992 128.193 18.848C127.865 18.696 127.481 18.62 127.041 18.62C126.185 18.62 125.509 18.864 125.013 19.352C124.525 19.84 124.213 20.532 124.077 21.428H129.669ZM124.017 23.216C124.065 23.848 124.177 24.396 124.353 24.86C124.529 25.316 124.761 25.696 125.049 26C125.337 26.296 125.677 26.52 126.069 26.672C126.469 26.816 126.909 26.888 127.389 26.888C127.869 26.888 128.281 26.832 128.625 26.72C128.977 26.608 129.281 26.484 129.537 26.348C129.801 26.212 130.029 26.088 130.221 25.976C130.421 25.864 130.613 25.808 130.797 25.808C131.045 25.808 131.229 25.9 131.349 26.084L132.201 27.164C131.873 27.548 131.505 27.872 131.097 28.136C130.689 28.392 130.261 28.6 129.813 28.76C129.373 28.912 128.921 29.02 128.457 29.084C128.001 29.148 127.557 29.18 127.125 29.18C126.269 29.18 125.473 29.04 124.737 28.76C124.001 28.472 123.361 28.052 122.817 27.5C122.273 26.94 121.845 26.252 121.533 25.436C121.221 24.612 121.065 23.66 121.065 22.58C121.065 21.74 121.201 20.952 121.473 20.216C121.745 19.472 122.133 18.828 122.637 18.284C123.149 17.732 123.769 17.296 124.497 16.976C125.233 16.656 126.061 16.496 126.981 16.496C127.757 16.496 128.473 16.62 129.129 16.868C129.785 17.116 130.349 17.48 130.821 17.96C131.293 18.432 131.661 19.016 131.925 19.712C132.197 20.4 132.333 21.188 132.333 22.076C132.333 22.524 132.285 22.828 132.189 22.988C132.093 23.14 131.909 23.216 131.637 23.216H124.017ZM142.07 19.088C141.99 19.216 141.906 19.308 141.818 19.364C141.73 19.412 141.618 19.436 141.482 19.436C141.338 19.436 141.182 19.396 141.014 19.316C140.854 19.236 140.666 19.148 140.45 19.052C140.234 18.948 139.986 18.856 139.706 18.776C139.434 18.696 139.11 18.656 138.734 18.656C138.15 18.656 137.69 18.78 137.354 19.028C137.026 19.276 136.862 19.6 136.862 20C136.862 20.264 136.946 20.488 137.114 20.672C137.29 20.848 137.518 21.004 137.798 21.14C138.086 21.276 138.41 21.4 138.77 21.512C139.13 21.616 139.494 21.732 139.862 21.86C140.238 21.988 140.606 22.136 140.966 22.304C141.326 22.464 141.646 22.672 141.926 22.928C142.214 23.176 142.442 23.476 142.61 23.828C142.786 24.18 142.874 24.604 142.874 25.1C142.874 25.692 142.766 26.24 142.55 26.744C142.342 27.24 142.03 27.672 141.614 28.04C141.198 28.4 140.682 28.684 140.066 28.892C139.458 29.092 138.754 29.192 137.954 29.192C137.53 29.192 137.114 29.152 136.706 29.072C136.306 29 135.918 28.896 135.542 28.76C135.174 28.624 134.83 28.464 134.51 28.28C134.198 28.096 133.922 27.896 133.682 27.68L134.366 26.552C134.454 26.416 134.558 26.312 134.678 26.24C134.798 26.168 134.95 26.132 135.134 26.132C135.318 26.132 135.49 26.184 135.65 26.288C135.818 26.392 136.01 26.504 136.226 26.624C136.442 26.744 136.694 26.856 136.982 26.96C137.278 27.064 137.65 27.116 138.098 27.116C138.45 27.116 138.75 27.076 138.998 26.996C139.254 26.908 139.462 26.796 139.622 26.66C139.79 26.524 139.91 26.368 139.982 26.192C140.062 26.008 140.102 25.82 140.102 25.628C140.102 25.34 140.014 25.104 139.838 24.92C139.67 24.736 139.442 24.576 139.154 24.44C138.874 24.304 138.55 24.184 138.182 24.08C137.822 23.968 137.45 23.848 137.066 23.72C136.69 23.592 136.318 23.444 135.95 23.276C135.59 23.1 135.266 22.88 134.978 22.616C134.698 22.352 134.47 22.028 134.294 21.644C134.126 21.26 134.042 20.796 134.042 20.252C134.042 19.748 134.142 19.268 134.342 18.812C134.542 18.356 134.834 17.96 135.218 17.624C135.61 17.28 136.094 17.008 136.67 16.808C137.254 16.6 137.926 16.496 138.686 16.496C139.534 16.496 140.306 16.636 141.002 16.916C141.698 17.196 142.278 17.564 142.742 18.02L142.07 19.088ZM148.069 11.168V21.38H148.621C148.821 21.38 148.977 21.356 149.089 21.308C149.209 21.252 149.329 21.144 149.449 20.984L152.509 17.204C152.637 17.036 152.777 16.908 152.929 16.82C153.089 16.732 153.293 16.688 153.541 16.688H156.253L152.425 21.26C152.153 21.62 151.857 21.896 151.537 22.088C151.705 22.208 151.853 22.348 151.981 22.508C152.117 22.668 152.245 22.84 152.365 23.024L156.469 29H153.793C153.561 29 153.361 28.964 153.193 28.892C153.025 28.812 152.885 28.672 152.773 28.472L149.629 23.804C149.517 23.62 149.401 23.5 149.281 23.444C149.161 23.388 148.981 23.36 148.741 23.36H148.069V29H145.105V11.168H148.069Z" fill="#2E3DA3"/>
</g>
<defs>
<linearGradient id="paint0_linear_3139_18691" x1="-4.3667" y1="-3.23334" x2="36.7167" y2="38.8889" gradientUnits="userSpaceOnUse">
<stop offset="0.0363151" stop-color="#2E3DA3"/>
<stop offset="1" stop-color="#96A4FD"/>
</linearGradient>
<linearGradient id="paint1_linear_3139_18691" x1="-4.3667" y1="-3.23334" x2="36.7167" y2="38.8889" gradientUnits="userSpaceOnUse">
<stop offset="0.0363151" stop-color="#2E3DA3"/>
<stop offset="1" stop-color="#96A4FD"/>
</linearGradient>
<linearGradient id="paint2_linear_3139_18691" x1="-4.3667" y1="-3.23334" x2="36.7167" y2="38.8889" gradientUnits="userSpaceOnUse">
<stop offset="0.0363151" stop-color="#2E3DA3"/>
<stop offset="1" stop-color="#96A4FD"/>
</linearGradient>
<linearGradient id="paint3_linear_3139_18691" x1="-4.3667" y1="-3.23334" x2="36.7167" y2="38.8889" gradientUnits="userSpaceOnUse">
<stop offset="0.0363151" stop-color="#2E3DA3"/>
<stop offset="1" stop-color="#96A4FD"/>
</linearGradient>
<linearGradient id="paint4_linear_3139_18691" x1="-4.3667" y1="-3.23334" x2="36.7167" y2="38.8889" gradientUnits="userSpaceOnUse">
<stop offset="0.0363151" stop-color="#2E3DA3"/>
<stop offset="1" stop-color="#96A4FD"/>
</linearGradient>
<linearGradient id="paint5_linear_3139_18691" x1="-4.3667" y1="-3.23334" x2="36.7167" y2="38.8889" gradientUnits="userSpaceOnUse">
<stop offset="0.0363151" stop-color="#2E3DA3"/>
<stop offset="1" stop-color="#96A4FD"/>
</linearGradient>
<linearGradient id="paint6_linear_3139_18691" x1="-4.3667" y1="-3.23334" x2="36.7167" y2="38.8889" gradientUnits="userSpaceOnUse">
<stop offset="0.0363151" stop-color="#2E3DA3"/>
<stop offset="1" stop-color="#96A4FD"/>
</linearGradient>
<linearGradient id="paint7_linear_3139_18691" x1="-4.3667" y1="-3.23334" x2="36.7167" y2="38.8889" gradientUnits="userSpaceOnUse">
<stop offset="0.0363151" stop-color="#2E3DA3"/>
<stop offset="1" stop-color="#96A4FD"/>
</linearGradient>
<linearGradient id="paint8_linear_3139_18691" x1="-4.3667" y1="-3.23334" x2="36.7167" y2="38.8889" gradientUnits="userSpaceOnUse">
<stop offset="0.0363151" stop-color="#2E3DA3"/>
<stop offset="1" stop-color="#96A4FD"/>
</linearGradient>
<linearGradient id="paint9_linear_3139_18691" x1="-4.3667" y1="-3.23334" x2="36.7167" y2="38.8889" gradientUnits="userSpaceOnUse">
<stop offset="0.0363151" stop-color="#2E3DA3"/>
<stop offset="1" stop-color="#96A4FD"/>
</linearGradient>
<linearGradient id="paint10_linear_3139_18691" x1="-4.3667" y1="-3.23334" x2="36.7167" y2="38.8889" gradientUnits="userSpaceOnUse">
<stop offset="0.0363151" stop-color="#2E3DA3"/>
<stop offset="1" stop-color="#96A4FD"/>
</linearGradient>
<linearGradient id="paint11_linear_3139_18691" x1="-4.3667" y1="-3.23334" x2="36.7167" y2="38.8889" gradientUnits="userSpaceOnUse">
<stop offset="0.0363151" stop-color="#2E3DA3"/>
<stop offset="1" stop-color="#96A4FD"/>
</linearGradient>
<linearGradient id="paint12_linear_3139_18691" x1="-4.3667" y1="-3.23334" x2="36.7167" y2="38.8889" gradientUnits="userSpaceOnUse">
<stop offset="0.0363151" stop-color="#2E3DA3"/>
<stop offset="1" stop-color="#96A4FD"/>
</linearGradient>
<linearGradient id="paint13_linear_3139_18691" x1="-4.3667" y1="-3.23334" x2="36.7167" y2="38.8889" gradientUnits="userSpaceOnUse">
<stop offset="0.0363151" stop-color="#2E3DA3"/>
<stop offset="1" stop-color="#96A4FD"/>
</linearGradient>
<linearGradient id="paint14_linear_3139_18691" x1="-4.3667" y1="-3.23334" x2="36.7167" y2="38.8889" gradientUnits="userSpaceOnUse">
<stop offset="0.0363151" stop-color="#2E3DA3"/>
<stop offset="1" stop-color="#96A4FD"/>
</linearGradient>
<linearGradient id="paint15_linear_3139_18691" x1="-4.3667" y1="-3.23334" x2="36.7167" y2="38.8889" gradientUnits="userSpaceOnUse">
<stop offset="0.0363151" stop-color="#2E3DA3"/>
<stop offset="1" stop-color="#96A4FD"/>
</linearGradient>
<clipPath id="clip0_3139_18691">
<rect width="157" height="40" fill="white"/>
</clipPath>
</defs>
</svg>
