<svg width="200" height="92" viewBox="0 0 200 92" fill="none" xmlns="http://www.w3.org/2000/svg">
<mask id="path-1-inside-1_3137_13302" fill="white">
<path d="M0 0H200V92H0V0Z"/>
</mask>
<path d="M200 91H0V93H200V91Z" fill="#1E2024" mask="url(#path-1-inside-1_3137_13302)"/>
<path d="M41.5048 35.92C41.6695 35.912 41.8346 35.9079 42 35.9079C42.1653 35.9079 42.3304 35.912 42.4952 35.92L43.0195 25.2472C42.6803 25.2305 42.3403 25.2222 42 25.2222C41.6596 25.2222 41.3197 25.2305 40.9805 25.2472L41.5048 35.92Z" fill="url(#paint0_linear_3137_13302)"/>
<path d="M39.5478 36.2103C39.8682 36.1301 40.1924 36.0656 40.5191 36.0171L38.9512 25.4471C38.2785 25.5468 37.6111 25.6796 36.9514 25.8449L39.5478 36.2103Z" fill="url(#paint1_linear_3137_13302)"/>
<path d="M43.4808 36.0171C43.8075 36.0656 44.1317 36.1301 44.4521 36.2103L47.0485 25.8449C46.3888 25.6796 45.7214 25.5468 45.0487 25.4471L43.4808 36.0171Z" fill="url(#paint2_linear_3137_13302)"/>
<path d="M38.1379 36.6761C38.2906 36.6128 38.4447 36.5534 38.6001 36.4978L35.0001 26.4368C34.6804 26.5512 34.3631 26.6735 34.0486 26.8038C33.7342 26.934 33.4233 27.0718 33.1163 27.2171L37.6851 36.8768C37.8341 36.8063 37.9851 36.7394 38.1379 36.6761Z" fill="url(#paint3_linear_3137_13302)"/>
<path d="M45.3998 36.4978C45.5552 36.5534 45.7093 36.6128 45.862 36.6761C46.0148 36.7394 46.1658 36.8063 46.3149 36.8768L50.8836 27.2171C50.5766 27.0718 50.2657 26.934 49.9513 26.8038C49.6369 26.6735 49.3196 26.5512 48.9998 26.4368L45.3998 36.4978Z" fill="url(#paint4_linear_3137_13302)"/>
<path d="M35.9881 37.8939C36.2534 37.6972 36.5283 37.5135 36.8116 37.3437L31.318 28.1783C30.7347 28.5279 30.1689 28.9059 29.6226 29.3111L35.9881 37.8939Z" fill="url(#paint5_linear_3137_13302)"/>
<path d="M47.1883 37.3437C47.4716 37.5135 47.7465 37.6972 48.0118 37.8939L54.3773 29.3111C53.831 28.906 53.2652 28.5279 52.6819 28.1783L47.1883 37.3437Z" fill="url(#paint6_linear_3137_13302)"/>
<path d="M34.8638 38.8638C34.9807 38.7469 35.1003 38.633 35.2225 38.5222L28.0464 30.6046C27.7948 30.8327 27.5485 31.0672 27.3078 31.3078C27.0672 31.5485 26.8327 31.7948 26.6046 32.0464L34.5222 39.2225C34.633 39.1003 34.7469 38.9807 34.8638 38.8638Z" fill="url(#paint7_linear_3137_13302)"/>
<path d="M48.7774 38.5222C48.8996 38.633 49.0192 38.7469 49.1361 38.8638C49.253 38.9807 49.3669 39.1003 49.4777 39.2226L57.3953 32.0464C57.1672 31.7948 56.9327 31.5485 56.6921 31.3078C56.4514 31.0672 56.2051 30.8327 55.9535 30.6046L48.7774 38.5222Z" fill="url(#paint8_linear_3137_13302)"/>
<path d="M33.3437 40.8116C33.5135 40.5283 33.6972 40.2534 33.8939 39.9881L25.3111 33.6226C24.906 34.1689 24.5279 34.7347 24.1783 35.318L33.3437 40.8116Z" fill="url(#paint9_linear_3137_13302)"/>
<path d="M50.106 39.9881C50.3028 40.2534 50.4864 40.5283 50.6562 40.8116L59.8217 35.318C59.472 34.7347 59.094 34.1689 58.6888 33.6226L50.106 39.9881Z" fill="url(#paint10_linear_3137_13302)"/>
<path d="M32.6761 42.1379C32.7394 41.9851 32.8063 41.8341 32.8768 41.6851L23.2171 37.1163C23.0718 37.4233 22.934 37.7342 22.8038 38.0486C22.6735 38.3631 22.5512 38.6804 22.4368 39.0001L32.4978 42.6001C32.5534 42.4447 32.6128 42.2906 32.6761 42.1379Z" fill="url(#paint11_linear_3137_13302)"/>
<path d="M51.1231 41.6851C51.1936 41.8341 51.2606 41.9851 51.3238 42.1379C51.3871 42.2906 51.4465 42.4447 51.5021 42.6001L61.5632 39.0001C61.4487 38.6804 61.3264 38.3631 61.1961 38.0487C61.0659 37.7342 60.9281 37.4233 60.7828 37.1163L51.1231 41.6851Z" fill="url(#paint12_linear_3137_13302)"/>
<path d="M32.0171 44.5191C32.0656 44.1924 32.1301 43.8682 32.2103 43.5478L21.8449 40.9514C21.6796 41.6111 21.5468 42.2785 21.4471 42.9512L32.0171 44.5191Z" fill="url(#paint13_linear_3137_13302)"/>
<path d="M51.7896 43.5478C51.8698 43.8682 51.9343 44.1924 51.9828 44.5191L62.5528 42.9512C62.4531 42.2785 62.3203 41.6111 62.1551 40.9514L51.7896 43.5478Z" fill="url(#paint14_linear_3137_13302)"/>
<path d="M31.9079 46C31.9079 45.8346 31.912 45.6695 31.92 45.5048L21.2472 44.9805C21.2305 45.3197 21.2222 45.6596 21.2222 46C21.2222 48.7285 21.7596 51.4304 22.8038 53.9512C23.848 56.4721 25.3784 58.7627 27.3078 60.6921C29.2372 62.6214 31.5278 64.1519 34.0486 65.1961C36.5695 66.2403 39.2714 66.7777 42 66.7777C44.7285 66.7777 47.4304 66.2403 49.9513 65.1961C52.4721 64.1519 54.7627 62.6214 56.6921 60.6921C58.6214 58.7627 60.1519 56.4721 61.1961 53.9512C62.2403 51.4304 62.7777 48.7285 62.7777 46C62.7777 45.6596 62.7694 45.3197 62.7527 44.9805L52.0799 45.5048C52.0879 45.6695 52.092 45.8347 52.092 46C52.092 47.3253 51.831 48.6376 51.3238 49.862C50.8166 51.0864 50.0733 52.199 49.1361 53.1361C48.199 54.0733 47.0864 54.8166 45.862 55.3238C44.6376 55.831 43.3253 56.092 42 56.092C40.6747 56.092 39.3623 55.831 38.1379 55.3238C36.9135 54.8166 35.8009 54.0733 34.8638 53.1361C33.9266 52.199 33.1833 51.0864 32.6761 49.862C32.1689 48.6376 31.9079 47.3253 31.9079 46Z" fill="url(#paint15_linear_3137_13302)"/>
<path d="M42.0012 35.9076C41.8359 35.9076 41.6708 35.9117 41.506 35.9198L41.3069 31.8667C41.7673 31.6682 42.2392 31.4914 42.7215 31.3379L42.4964 35.9198C42.3316 35.9117 42.1665 35.9076 42.0012 35.9076Z" fill="#5165E1"/>
<path d="M44.2351 30.94L43.482 36.0169C43.8088 36.0654 44.133 36.1298 44.4534 36.2101L45.8353 30.6933C45.2931 30.7479 44.7592 30.8307 44.2351 30.94Z" fill="#5165E1"/>
<path d="M47.5057 30.6157L45.4011 36.4976C45.5564 36.5532 45.7106 36.6126 45.8633 36.6759C46.016 36.7391 46.167 36.8061 46.3161 36.8766L49.2264 30.7233C48.6617 30.6562 48.0875 30.6198 47.5057 30.6157Z" fill="#5165E1"/>
<path d="M50.9717 31.0334L47.1896 37.3435C47.4729 37.5133 47.7477 37.6969 48.0131 37.8937L52.7113 31.5588C52.1463 31.3507 51.5657 31.1748 50.9717 31.0334Z" fill="#5165E1"/>
<path d="M54.4127 32.3057L48.7786 38.522C48.9009 38.6328 49.0205 38.7467 49.1374 38.8636C49.2543 38.9804 49.3681 39.1001 49.479 39.2223L56.042 33.2738C55.521 32.9191 54.9769 32.5955 54.4127 32.3057Z" fill="#5165E1"/>
<path d="M57.5653 34.4567L50.1072 39.9879C50.304 40.2532 50.4877 40.528 50.6575 40.8114L58.9488 35.8417C58.5173 35.3513 58.0552 34.8886 57.5653 34.4567Z" fill="#5165E1"/>
<path d="M60.1603 37.4111L51.1243 41.6848C51.1949 41.8339 51.2618 41.9849 51.325 42.1376C51.3883 42.2904 51.4478 42.4445 51.5034 42.5998L61.1694 39.1413C60.87 38.5412 60.5326 37.9634 60.1603 37.4111Z" fill="#5165E1"/>
<path d="M61.9493 41.003L51.7908 43.5475C51.8711 43.868 51.9356 44.1922 51.9841 44.5189L62.4792 42.9621C62.345 42.2923 62.1674 41.6383 61.9493 41.003Z" fill="#5165E1"/>
<path d="M62.7458 44.9806L52.0811 45.5045C52.0892 45.6693 52.0933 45.8344 52.0933 45.9997C52.0933 47.325 51.8322 48.6374 51.325 49.8618C50.8179 51.0862 50.0745 52.1988 49.1374 53.1359C48.2002 54.073 47.0877 54.8164 45.8633 55.3236C44.6388 55.8308 43.3265 56.0918 42.0012 56.0918C40.6759 56.0918 39.3636 55.8308 38.1391 55.3236C36.9147 54.8164 35.8021 54.073 34.865 53.1359C33.9279 52.1988 33.1845 51.0862 32.6774 49.8618C32.4767 49.3774 32.3146 48.8793 32.1919 48.372C33.3327 55.7422 39.7048 61.3841 47.3945 61.3841C55.8911 61.3841 62.779 54.4963 62.779 45.9997C62.779 45.6573 62.7678 45.3175 62.7458 44.9806Z" fill="#5165E1"/>
<path d="M32.1919 43.6276C32.1984 43.6009 32.2049 43.5742 32.2116 43.5475L32.2048 43.5458C32.2004 43.5731 32.1961 43.6003 32.1919 43.6276Z" fill="#5165E1"/>
<path d="M32.3955 42.5628L32.4991 42.5998C32.5547 42.4445 32.6141 42.2904 32.6774 42.1376C32.7406 41.9849 32.8076 41.8339 32.8781 41.6848L32.6547 41.5791C32.5578 41.9027 32.4713 42.2306 32.3955 42.5628Z" fill="#5165E1"/>
<path d="M32.9859 40.5961L33.345 40.8114C33.5148 40.528 33.6984 40.2532 33.8952 39.9879L33.3932 39.6155C33.2465 39.9366 33.1106 40.2637 32.9859 40.5961Z" fill="#5165E1"/>
<path d="M33.8813 38.6402L34.5235 39.2223C34.6343 39.1001 34.7482 38.9804 34.865 38.8635C34.9819 38.7467 35.1016 38.6328 35.2238 38.522L34.4554 37.6742C34.2527 37.9885 34.0612 38.3107 33.8813 38.6402Z" fill="#5165E1"/>
<path d="M35.1209 36.7227L35.9894 37.8937C36.2547 37.6969 36.5295 37.5133 36.8129 37.3435L35.8835 35.7929C35.6175 36.0926 35.3631 36.4027 35.1209 36.7227Z" fill="#5165E1"/>
<path d="M36.7485 34.8938L37.6863 36.8766C37.8354 36.8061 37.9864 36.7391 38.1391 36.6759C38.2919 36.6126 38.446 36.5532 38.6013 36.4976L37.7208 34.0367C37.3847 34.3088 37.0603 34.5948 36.7485 34.8938Z" fill="#5165E1"/>
<path d="M38.8039 33.2353L39.549 36.2101C39.8695 36.1298 40.1936 36.0654 40.5204 36.0169L39.9996 32.5059C39.5893 32.7312 39.1904 32.9747 38.8039 33.2353Z" fill="#5165E1"/>
<path d="M89.8 32.54V47H87.1V40.68H80.31V47H77.61V32.54H80.31V38.76H87.1V32.54H89.8ZM98.9277 40.69C98.9277 40.37 98.881 40.07 98.7877 39.79C98.701 39.5033 98.5677 39.2533 98.3877 39.04C98.2077 38.8267 97.9777 38.66 97.6977 38.54C97.4243 38.4133 97.1043 38.35 96.7377 38.35C96.0243 38.35 95.461 38.5533 95.0477 38.96C94.641 39.3667 94.381 39.9433 94.2677 40.69H98.9277ZM94.2177 42.18C94.2577 42.7067 94.351 43.1633 94.4977 43.55C94.6443 43.93 94.8377 44.2467 95.0777 44.5C95.3177 44.7467 95.601 44.9333 95.9277 45.06C96.261 45.18 96.6277 45.24 97.0277 45.24C97.4277 45.24 97.771 45.1933 98.0577 45.1C98.351 45.0067 98.6043 44.9033 98.8177 44.79C99.0377 44.6767 99.2277 44.5733 99.3877 44.48C99.5543 44.3867 99.7143 44.34 99.8677 44.34C100.074 44.34 100.228 44.4167 100.328 44.57L101.038 45.47C100.764 45.79 100.458 46.06 100.118 46.28C99.7777 46.4933 99.421 46.6667 99.0477 46.8C98.681 46.9267 98.3043 47.0167 97.9177 47.07C97.5377 47.1233 97.1677 47.15 96.8077 47.15C96.0943 47.15 95.431 47.0333 94.8177 46.8C94.2043 46.56 93.671 46.21 93.2177 45.75C92.7643 45.2833 92.4077 44.71 92.1477 44.03C91.8877 43.3433 91.7577 42.55 91.7577 41.65C91.7577 40.95 91.871 40.2933 92.0977 39.68C92.3243 39.06 92.6477 38.5233 93.0677 38.07C93.4943 37.61 94.011 37.2467 94.6177 36.98C95.231 36.7133 95.921 36.58 96.6877 36.58C97.3343 36.58 97.931 36.6833 98.4777 36.89C99.0243 37.0967 99.4943 37.4 99.8877 37.8C100.281 38.1933 100.588 38.68 100.808 39.26C101.034 39.8333 101.148 40.49 101.148 41.23C101.148 41.6033 101.108 41.8567 101.028 41.99C100.948 42.1167 100.794 42.18 100.568 42.18H94.2177ZM105.501 32.14V47H103.031V32.14H105.501ZM110.432 44.34C110.712 44.68 111.016 44.92 111.342 45.06C111.676 45.2 112.036 45.27 112.422 45.27C112.796 45.27 113.132 45.2 113.432 45.06C113.732 44.92 113.986 44.7067 114.192 44.42C114.406 44.1333 114.569 43.7733 114.682 43.34C114.796 42.9 114.852 42.3833 114.852 41.79C114.852 41.19 114.802 40.6833 114.702 40.27C114.609 39.85 114.472 39.51 114.292 39.25C114.112 38.99 113.892 38.8 113.632 38.68C113.379 38.56 113.089 38.5 112.762 38.5C112.249 38.5 111.812 38.61 111.452 38.83C111.092 39.0433 110.752 39.3467 110.432 39.74V44.34ZM110.302 38.14C110.722 37.6667 111.199 37.2833 111.732 36.99C112.266 36.6967 112.892 36.55 113.612 36.55C114.172 36.55 114.682 36.6667 115.142 36.9C115.609 37.1333 116.009 37.4733 116.342 37.92C116.682 38.36 116.942 38.9067 117.122 39.56C117.309 40.2067 117.402 40.95 117.402 41.79C117.402 42.5567 117.299 43.2667 117.092 43.92C116.886 44.5733 116.589 45.14 116.202 45.62C115.822 46.1 115.359 46.4767 114.812 46.75C114.272 47.0167 113.666 47.15 112.992 47.15C112.419 47.15 111.929 47.0633 111.522 46.89C111.116 46.71 110.752 46.4633 110.432 46.15V50.35H107.962V36.74H109.472C109.792 36.74 110.002 36.89 110.102 37.19L110.302 38.14ZM132.266 39.77C132.266 40.83 132.09 41.8033 131.736 42.69C131.383 43.5767 130.886 44.34 130.246 44.98C129.606 45.62 128.836 46.1167 127.936 46.47C127.036 46.8233 126.036 47 124.936 47H119.426V32.54H124.936C126.036 32.54 127.036 32.72 127.936 33.08C128.836 33.4333 129.606 33.93 130.246 34.57C130.886 35.2033 131.383 35.9633 131.736 36.85C132.09 37.7367 132.266 38.71 132.266 39.77ZM129.506 39.77C129.506 38.9767 129.4 38.2667 129.186 37.64C128.98 37.0067 128.676 36.4733 128.276 36.04C127.883 35.6 127.403 35.2633 126.836 35.03C126.276 34.7967 125.643 34.68 124.936 34.68H122.126V44.86H124.936C125.643 44.86 126.276 44.7433 126.836 44.51C127.403 44.2767 127.883 43.9433 128.276 43.51C128.676 43.07 128.98 42.5367 129.186 41.91C129.4 41.2767 129.506 40.5633 129.506 39.77ZM140.725 40.69C140.725 40.37 140.678 40.07 140.585 39.79C140.498 39.5033 140.365 39.2533 140.185 39.04C140.005 38.8267 139.775 38.66 139.495 38.54C139.221 38.4133 138.901 38.35 138.535 38.35C137.821 38.35 137.258 38.5533 136.845 38.96C136.438 39.3667 136.178 39.9433 136.065 40.69H140.725ZM136.015 42.18C136.055 42.7067 136.148 43.1633 136.295 43.55C136.441 43.93 136.635 44.2467 136.875 44.5C137.115 44.7467 137.398 44.9333 137.725 45.06C138.058 45.18 138.425 45.24 138.825 45.24C139.225 45.24 139.568 45.1933 139.855 45.1C140.148 45.0067 140.401 44.9033 140.615 44.79C140.835 44.6767 141.025 44.5733 141.185 44.48C141.351 44.3867 141.511 44.34 141.665 44.34C141.871 44.34 142.025 44.4167 142.125 44.57L142.835 45.47C142.561 45.79 142.255 46.06 141.915 46.28C141.575 46.4933 141.218 46.6667 140.845 46.8C140.478 46.9267 140.101 47.0167 139.715 47.07C139.335 47.1233 138.965 47.15 138.605 47.15C137.891 47.15 137.228 47.0333 136.615 46.8C136.001 46.56 135.468 46.21 135.015 45.75C134.561 45.2833 134.205 44.71 133.945 44.03C133.685 43.3433 133.555 42.55 133.555 41.65C133.555 40.95 133.668 40.2933 133.895 39.68C134.121 39.06 134.445 38.5233 134.865 38.07C135.291 37.61 135.808 37.2467 136.415 36.98C137.028 36.7133 137.718 36.58 138.485 36.58C139.131 36.58 139.728 36.6833 140.275 36.89C140.821 37.0967 141.291 37.4 141.685 37.8C142.078 38.1933 142.385 38.68 142.605 39.26C142.831 39.8333 142.945 40.49 142.945 41.23C142.945 41.6033 142.905 41.8567 142.825 41.99C142.745 42.1167 142.591 42.18 142.365 42.18H136.015ZM151.058 38.74C150.991 38.8467 150.921 38.9233 150.848 38.97C150.775 39.01 150.681 39.03 150.568 39.03C150.448 39.03 150.318 38.9967 150.178 38.93C150.045 38.8633 149.888 38.79 149.708 38.71C149.528 38.6233 149.321 38.5467 149.088 38.48C148.861 38.4133 148.591 38.38 148.278 38.38C147.791 38.38 147.408 38.4833 147.128 38.69C146.855 38.8967 146.718 39.1667 146.718 39.5C146.718 39.72 146.788 39.9067 146.928 40.06C147.075 40.2067 147.265 40.3367 147.498 40.45C147.738 40.5633 148.008 40.6667 148.308 40.76C148.608 40.8467 148.911 40.9433 149.218 41.05C149.531 41.1567 149.838 41.28 150.138 41.42C150.438 41.5533 150.705 41.7267 150.938 41.94C151.178 42.1467 151.368 42.3967 151.508 42.69C151.655 42.9833 151.728 43.3367 151.728 43.75C151.728 44.2433 151.638 44.7 151.458 45.12C151.285 45.5333 151.025 45.8933 150.678 46.2C150.331 46.5 149.901 46.7367 149.388 46.91C148.881 47.0767 148.295 47.16 147.628 47.16C147.275 47.16 146.928 47.1267 146.588 47.06C146.255 47 145.931 46.9133 145.618 46.8C145.311 46.6867 145.025 46.5533 144.758 46.4C144.498 46.2467 144.268 46.08 144.068 45.9L144.638 44.96C144.711 44.8467 144.798 44.76 144.898 44.7C144.998 44.64 145.125 44.61 145.278 44.61C145.431 44.61 145.575 44.6533 145.708 44.74C145.848 44.8267 146.008 44.92 146.188 45.02C146.368 45.12 146.578 45.2133 146.818 45.3C147.065 45.3867 147.375 45.43 147.748 45.43C148.041 45.43 148.291 45.3967 148.498 45.33C148.711 45.2567 148.885 45.1633 149.018 45.05C149.158 44.9367 149.258 44.8067 149.318 44.66C149.385 44.5067 149.418 44.35 149.418 44.19C149.418 43.95 149.345 43.7533 149.198 43.6C149.058 43.4467 148.868 43.3133 148.628 43.2C148.395 43.0867 148.125 42.9867 147.818 42.9C147.518 42.8067 147.208 42.7067 146.888 42.6C146.575 42.4933 146.265 42.37 145.958 42.23C145.658 42.0833 145.388 41.9 145.148 41.68C144.915 41.46 144.725 41.19 144.578 40.87C144.438 40.55 144.368 40.1633 144.368 39.71C144.368 39.29 144.451 38.89 144.618 38.51C144.785 38.13 145.028 37.8 145.348 37.52C145.675 37.2333 146.078 37.0067 146.558 36.84C147.045 36.6667 147.605 36.58 148.238 36.58C148.945 36.58 149.588 36.6967 150.168 36.93C150.748 37.1633 151.231 37.47 151.618 37.85L151.058 38.74ZM156.057 32.14V40.65H156.517C156.684 40.65 156.814 40.63 156.907 40.59C157.007 40.5433 157.107 40.4533 157.207 40.32L159.757 37.17C159.864 37.03 159.981 36.9233 160.107 36.85C160.241 36.7767 160.411 36.74 160.617 36.74H162.877L159.687 40.55C159.461 40.85 159.214 41.08 158.947 41.24C159.087 41.34 159.211 41.4567 159.317 41.59C159.431 41.7233 159.537 41.8667 159.637 42.02L163.057 47H160.827C160.634 47 160.467 46.97 160.327 46.91C160.187 46.8433 160.071 46.7267 159.977 46.56L157.357 42.67C157.264 42.5167 157.167 42.4167 157.067 42.37C156.967 42.3233 156.817 42.3 156.617 42.3H156.057V47H153.587V32.14H156.057Z" fill="#F9FAFA"/>
<path d="M82.3509 57.875H80.1709V64H78.8259V57.875H76.6459V56.77H82.3509V57.875ZM85.247 57.84V59.845H87.777V60.88H85.247V62.925H88.457V64H83.897V56.77H88.457V57.84H85.247ZM88.352 54.695L86.732 56.125C86.6653 56.185 86.602 56.2217 86.542 56.235C86.482 56.2483 86.4053 56.255 86.312 56.255H85.417L86.462 54.9C86.4953 54.8533 86.5287 54.8167 86.562 54.79C86.5953 54.76 86.632 54.7383 86.672 54.725C86.712 54.7117 86.7553 54.7033 86.802 54.7C86.852 54.6967 86.9103 54.695 86.977 54.695H88.352ZM95.0577 62.295C95.131 62.295 95.196 62.3233 95.2527 62.38L95.7827 62.955C95.4894 63.3183 95.1277 63.5967 94.6977 63.79C94.271 63.9833 93.7577 64.08 93.1577 64.08C92.621 64.08 92.1377 63.9883 91.7077 63.805C91.281 63.6217 90.916 63.3667 90.6127 63.04C90.3094 62.7133 90.076 62.3233 89.9127 61.87C89.7527 61.4167 89.6727 60.9217 89.6727 60.385C89.6727 59.8417 89.7594 59.345 89.9327 58.895C90.106 58.4417 90.3494 58.0517 90.6627 57.725C90.9794 57.3983 91.356 57.145 91.7927 56.965C92.2294 56.7817 92.7127 56.69 93.2427 56.69C93.7694 56.69 94.236 56.7767 94.6427 56.95C95.0527 57.1233 95.401 57.35 95.6877 57.63L95.2377 58.255C95.211 58.295 95.176 58.33 95.1327 58.36C95.0927 58.39 95.036 58.405 94.9627 58.405C94.9127 58.405 94.861 58.3917 94.8077 58.365C94.7544 58.335 94.696 58.3 94.6327 58.26C94.5694 58.2167 94.496 58.17 94.4127 58.12C94.3294 58.07 94.2327 58.025 94.1227 57.985C94.0127 57.9417 93.8844 57.9067 93.7377 57.88C93.5944 57.85 93.4277 57.835 93.2377 57.835C92.9144 57.835 92.6177 57.8933 92.3477 58.01C92.081 58.1233 91.851 58.29 91.6577 58.51C91.4644 58.7267 91.3144 58.9933 91.2077 59.31C91.101 59.6233 91.0477 59.9817 91.0477 60.385C91.0477 60.7917 91.1044 61.1533 91.2177 61.47C91.3344 61.7867 91.491 62.0533 91.6877 62.27C91.8844 62.4867 92.116 62.6533 92.3827 62.77C92.6494 62.8833 92.936 62.94 93.2427 62.94C93.426 62.94 93.591 62.93 93.7377 62.91C93.8877 62.89 94.0244 62.8583 94.1477 62.815C94.2744 62.7717 94.3927 62.7167 94.5027 62.65C94.616 62.58 94.7277 62.495 94.8377 62.395C94.871 62.365 94.906 62.3417 94.9427 62.325C94.9794 62.305 95.0177 62.295 95.0577 62.295ZM103.399 56.77V64H102.709C102.602 64 102.512 63.9833 102.439 63.95C102.369 63.9133 102.301 63.8533 102.234 63.77L98.459 58.95C98.479 59.17 98.489 59.3733 98.489 59.56V64H97.304V56.77H98.009C98.0657 56.77 98.114 56.7733 98.154 56.78C98.1974 56.7833 98.234 56.7933 98.264 56.81C98.2974 56.8233 98.329 56.845 98.359 56.875C98.389 56.9017 98.4224 56.9383 98.459 56.985L102.249 61.825C102.239 61.7083 102.231 61.5933 102.224 61.48C102.217 61.3667 102.214 61.2617 102.214 61.165V56.77H103.399ZM106.959 64H105.609V56.77H106.959V64ZM114.143 62.295C114.216 62.295 114.281 62.3233 114.338 62.38L114.868 62.955C114.575 63.3183 114.213 63.5967 113.783 63.79C113.356 63.9833 112.843 64.08 112.243 64.08C111.706 64.08 111.223 63.9883 110.793 63.805C110.366 63.6217 110.001 63.3667 109.698 63.04C109.395 62.7133 109.161 62.3233 108.998 61.87C108.838 61.4167 108.758 60.9217 108.758 60.385C108.758 59.8417 108.845 59.345 109.018 58.895C109.191 58.4417 109.435 58.0517 109.748 57.725C110.065 57.3983 110.441 57.145 110.878 56.965C111.315 56.7817 111.798 56.69 112.328 56.69C112.855 56.69 113.321 56.7767 113.728 56.95C114.138 57.1233 114.486 57.35 114.773 57.63L114.323 58.255C114.296 58.295 114.261 58.33 114.218 58.36C114.178 58.39 114.121 58.405 114.048 58.405C113.998 58.405 113.946 58.3917 113.893 58.365C113.84 58.335 113.781 58.3 113.718 58.26C113.655 58.2167 113.581 58.17 113.498 58.12C113.415 58.07 113.318 58.025 113.208 57.985C113.098 57.9417 112.97 57.9067 112.823 57.88C112.68 57.85 112.513 57.835 112.323 57.835C112 57.835 111.703 57.8933 111.433 58.01C111.166 58.1233 110.936 58.29 110.743 58.51C110.55 58.7267 110.4 58.9933 110.293 59.31C110.186 59.6233 110.133 59.9817 110.133 60.385C110.133 60.7917 110.19 61.1533 110.303 61.47C110.42 61.7867 110.576 62.0533 110.773 62.27C110.97 62.4867 111.201 62.6533 111.468 62.77C111.735 62.8833 112.021 62.94 112.328 62.94C112.511 62.94 112.676 62.93 112.823 62.91C112.973 62.89 113.11 62.8583 113.233 62.815C113.36 62.7717 113.478 62.7167 113.588 62.65C113.701 62.58 113.813 62.495 113.923 62.395C113.956 62.365 113.991 62.3417 114.028 62.325C114.065 62.305 114.103 62.295 114.143 62.295ZM123.128 60.385C123.128 60.915 123.04 61.4067 122.863 61.86C122.69 62.31 122.443 62.7 122.123 63.03C121.803 63.36 121.418 63.6183 120.968 63.805C120.518 63.9883 120.018 64.08 119.468 64.08C118.921 64.08 118.423 63.9883 117.973 63.805C117.523 63.6183 117.136 63.36 116.813 63.03C116.493 62.7 116.245 62.31 116.068 61.86C115.891 61.4067 115.803 60.915 115.803 60.385C115.803 59.855 115.891 59.365 116.068 58.915C116.245 58.4617 116.493 58.07 116.813 57.74C117.136 57.41 117.523 57.1533 117.973 56.97C118.423 56.7833 118.921 56.69 119.468 56.69C119.835 56.69 120.18 56.7333 120.503 56.82C120.826 56.9033 121.123 57.0233 121.393 57.18C121.663 57.3333 121.905 57.5217 122.118 57.745C122.335 57.965 122.518 58.2117 122.668 58.485C122.818 58.7583 122.931 59.055 123.008 59.375C123.088 59.695 123.128 60.0317 123.128 60.385ZM121.753 60.385C121.753 59.9883 121.7 59.6333 121.593 59.32C121.486 59.0033 121.335 58.735 121.138 58.515C120.941 58.295 120.701 58.1267 120.418 58.01C120.138 57.8933 119.821 57.835 119.468 57.835C119.115 57.835 118.796 57.8933 118.513 58.01C118.233 58.1267 117.993 58.295 117.793 58.515C117.596 58.735 117.445 59.0033 117.338 59.32C117.231 59.6333 117.178 59.9883 117.178 60.385C117.178 60.7817 117.231 61.1383 117.338 61.455C117.445 61.7683 117.596 62.035 117.793 62.255C117.993 62.4717 118.233 62.6383 118.513 62.755C118.796 62.8717 119.115 62.93 119.468 62.93C119.821 62.93 120.138 62.8717 120.418 62.755C120.701 62.6383 120.941 62.4717 121.138 62.255C121.335 62.035 121.486 61.7683 121.593 61.455C121.7 61.1383 121.753 60.7817 121.753 60.385Z" fill="#8996EB"/>
<defs>
<linearGradient id="paint0_linear_3137_13302" x1="15.1966" y1="20.4433" x2="60.3883" y2="66.7777" gradientUnits="userSpaceOnUse">
<stop offset="0.0363151" stop-color="#3B53F1"/>
<stop offset="0.524591" stop-color="#6D80FD"/>
<stop offset="1" stop-color="#C9D0FE"/>
</linearGradient>
<linearGradient id="paint1_linear_3137_13302" x1="15.1966" y1="20.4433" x2="60.3883" y2="66.7777" gradientUnits="userSpaceOnUse">
<stop offset="0.0363151" stop-color="#3B53F1"/>
<stop offset="0.524591" stop-color="#6D80FD"/>
<stop offset="1" stop-color="#C9D0FE"/>
</linearGradient>
<linearGradient id="paint2_linear_3137_13302" x1="15.1966" y1="20.4433" x2="60.3883" y2="66.7777" gradientUnits="userSpaceOnUse">
<stop offset="0.0363151" stop-color="#3B53F1"/>
<stop offset="0.524591" stop-color="#6D80FD"/>
<stop offset="1" stop-color="#C9D0FE"/>
</linearGradient>
<linearGradient id="paint3_linear_3137_13302" x1="15.1966" y1="20.4433" x2="60.3883" y2="66.7777" gradientUnits="userSpaceOnUse">
<stop offset="0.0363151" stop-color="#3B53F1"/>
<stop offset="0.524591" stop-color="#6D80FD"/>
<stop offset="1" stop-color="#C9D0FE"/>
</linearGradient>
<linearGradient id="paint4_linear_3137_13302" x1="15.1966" y1="20.4433" x2="60.3883" y2="66.7777" gradientUnits="userSpaceOnUse">
<stop offset="0.0363151" stop-color="#3B53F1"/>
<stop offset="0.524591" stop-color="#6D80FD"/>
<stop offset="1" stop-color="#C9D0FE"/>
</linearGradient>
<linearGradient id="paint5_linear_3137_13302" x1="15.1966" y1="20.4433" x2="60.3883" y2="66.7777" gradientUnits="userSpaceOnUse">
<stop offset="0.0363151" stop-color="#3B53F1"/>
<stop offset="0.524591" stop-color="#6D80FD"/>
<stop offset="1" stop-color="#C9D0FE"/>
</linearGradient>
<linearGradient id="paint6_linear_3137_13302" x1="15.1966" y1="20.4433" x2="60.3883" y2="66.7777" gradientUnits="userSpaceOnUse">
<stop offset="0.0363151" stop-color="#3B53F1"/>
<stop offset="0.524591" stop-color="#6D80FD"/>
<stop offset="1" stop-color="#C9D0FE"/>
</linearGradient>
<linearGradient id="paint7_linear_3137_13302" x1="15.1966" y1="20.4433" x2="60.3883" y2="66.7777" gradientUnits="userSpaceOnUse">
<stop offset="0.0363151" stop-color="#3B53F1"/>
<stop offset="0.524591" stop-color="#6D80FD"/>
<stop offset="1" stop-color="#C9D0FE"/>
</linearGradient>
<linearGradient id="paint8_linear_3137_13302" x1="15.1966" y1="20.4433" x2="60.3883" y2="66.7777" gradientUnits="userSpaceOnUse">
<stop offset="0.0363151" stop-color="#3B53F1"/>
<stop offset="0.524591" stop-color="#6D80FD"/>
<stop offset="1" stop-color="#C9D0FE"/>
</linearGradient>
<linearGradient id="paint9_linear_3137_13302" x1="15.1966" y1="20.4433" x2="60.3883" y2="66.7777" gradientUnits="userSpaceOnUse">
<stop offset="0.0363151" stop-color="#3B53F1"/>
<stop offset="0.524591" stop-color="#6D80FD"/>
<stop offset="1" stop-color="#C9D0FE"/>
</linearGradient>
<linearGradient id="paint10_linear_3137_13302" x1="15.1966" y1="20.4433" x2="60.3883" y2="66.7777" gradientUnits="userSpaceOnUse">
<stop offset="0.0363151" stop-color="#3B53F1"/>
<stop offset="0.524591" stop-color="#6D80FD"/>
<stop offset="1" stop-color="#C9D0FE"/>
</linearGradient>
<linearGradient id="paint11_linear_3137_13302" x1="15.1966" y1="20.4433" x2="60.3883" y2="66.7777" gradientUnits="userSpaceOnUse">
<stop offset="0.0363151" stop-color="#3B53F1"/>
<stop offset="0.524591" stop-color="#6D80FD"/>
<stop offset="1" stop-color="#C9D0FE"/>
</linearGradient>
<linearGradient id="paint12_linear_3137_13302" x1="15.1966" y1="20.4433" x2="60.3883" y2="66.7777" gradientUnits="userSpaceOnUse">
<stop offset="0.0363151" stop-color="#3B53F1"/>
<stop offset="0.524591" stop-color="#6D80FD"/>
<stop offset="1" stop-color="#C9D0FE"/>
</linearGradient>
<linearGradient id="paint13_linear_3137_13302" x1="15.1966" y1="20.4433" x2="60.3883" y2="66.7777" gradientUnits="userSpaceOnUse">
<stop offset="0.0363151" stop-color="#3B53F1"/>
<stop offset="0.524591" stop-color="#6D80FD"/>
<stop offset="1" stop-color="#C9D0FE"/>
</linearGradient>
<linearGradient id="paint14_linear_3137_13302" x1="15.1966" y1="20.4433" x2="60.3883" y2="66.7777" gradientUnits="userSpaceOnUse">
<stop offset="0.0363151" stop-color="#3B53F1"/>
<stop offset="0.524591" stop-color="#6D80FD"/>
<stop offset="1" stop-color="#C9D0FE"/>
</linearGradient>
<linearGradient id="paint15_linear_3137_13302" x1="15.1966" y1="20.4433" x2="60.3883" y2="66.7777" gradientUnits="userSpaceOnUse">
<stop offset="0.0363151" stop-color="#3B53F1"/>
<stop offset="0.524591" stop-color="#6D80FD"/>
<stop offset="1" stop-color="#C9D0FE"/>
</linearGradient>
</defs>
</svg>
